<?xml version="1.0" standalone="no"?>
<!DOCTYPE svg PUBLIC "-//W3C//DTD SVG 1.1//EN" "http://www.w3.org/Graphics/SVG/1.1/DTD/svg11.dtd" >
<svg xmlns="http://www.w3.org/2000/svg" xmlns:xlink="http://www.w3.org/1999/xlink" version="1.1">
<metadata>
Created by FontForge 20190801 at Mon Jun  3 05:40:00 2019
 By www-data
Photograph Signature (c) Lettersiro 2018. All Rights Reserved
</metadata>
<defs>
<font id="PhotographSignature" horiz-adv-x="1000" >
  <font-face 
    font-family="PhotographSignature"
    font-weight="400"
    font-stretch="normal"
    units-per-em="1000"
    panose-1="2 0 5 0 0 0 0 0 0 0"
    ascent="800"
    descent="-200"
    x-height="380"
    cap-height="929"
    bbox="-476.636 -396.552 2074.2 1290.09"
    underline-thickness="50"
    underline-position="-100"
    unicode-range="U+001D-E000"
  />
<missing-glyph horiz-adv-x="500" 
 />
    <glyph glyph-name="ll" unicode="ll" horiz-adv-x="564" 
d="M275 678q53 69 101 84q5 2 13 2q5 -19 -18 -64q-35 -65 -114 -142q-87 -83 -145 -130q86 136 112 175q48 72 51 75zM485 577q53 69 101 84q5 2 13 2q5 -20 -17 -64q-37 -65 -114 -142q-82 -79 -146 -130q86 136 112 175q48 72 51 75zM202 183q-36 -84 -17 -118
q21 -27 57 -23q35 5 64 20q40 23 94 65q72 56 119 97q56 50 72 73q1 3 -2 8t-9 8q-4 3 -6 3q-4 0 -5 -3l-3 -3q-22 -22 -76 -70q-64 -55 -113 -93q-61 -47 -89 -63q-43 -21 -58 -12q-16 9 -12 35q3 28 16 57q16 37 26 55q14 26 18 28q0 1 4.5 4.5t16.5 12.5t22 18
q58 47 99 83q58 51 111 108q54 58 79 106q26 51 18 73q-8 24 -34 32q-15 6 -32 0q-53 -15 -105 -86q-6 -3 -54 -72q-47 -65 -107 -164q-38 -59 -65 -115q-3 -2 -9 -8q-65 -55 -115 -92q-65 -48 -92 -63q-4 -2 -19 -7q-19 -4 -25 -5q-14 -2 -18 4q-10 24 22 100t89 172h2l2 1
l5 4q5 4 15.5 12t22.5 18q41 33 99 84t111 108q55 60 79 105q25 50 17 73q-8 24 -34 33q-15 5 -32 -1q-53 -15 -104 -86q-6 -4 -65 -88q-50 -71 -128 -198q-71 -114 -116 -214q-45 -99 -26 -134q20 -28 56 -23q35 4 65 20q40 23 94 65q52 40 76 61z" />
    <glyph glyph-name=".notdef" horiz-adv-x="500" 
 />
    <glyph glyph-name=".null" horiz-adv-x="0" 
 />
    <glyph glyph-name=".null" horiz-adv-x="0" 
 />
    <glyph glyph-name="nonmarkingreturn" horiz-adv-x="508" 
 />
    <glyph glyph-name="space" unicode=" " horiz-adv-x="326" 
 />
    <glyph glyph-name="space" unicode="&#xa0;" horiz-adv-x="326" 
 />
    <glyph glyph-name="exclam" unicode="!" horiz-adv-x="453" 
d="M318 693l-216 -418q-5 -10 11 -24q15 -15 20 -5l216 418q5 9 -10 24q-16 14 -21 5zM91 222q-10 0 -17 -7t-7 -17t7 -17t17 -7t17 7t7 17t-7 17t-17 7z" />
    <glyph glyph-name="quotedbl" unicode="&#x22;" horiz-adv-x="228" 
d="M65 680q1 -3 1 -9q0 -20 -15 -38q-6 -8 8 -24q15 -15 22 -7q18 21 18 48q0 10 -4 22q-5 15 -15 24l-3 3q-10 8 -18 8q-12 0 -2 -17q2 -4 8 -10zM137 680q1 -3 1 -9q0 -20 -15 -38q-6 -8 8 -24q15 -15 22 -7q18 21 18 48q0 14 -4 22q-4 14 -14 24l-3 3q-11 8 -18 8
q-12 0 -3 -17q2 -4 8 -10z" />
    <glyph glyph-name="numbersign" unicode="#" horiz-adv-x="432" 
d="M356 385q4 0 6 5q0 7 -4 12q-4 9 -10 13q-6 5 -13 5h-33l18 34q2 5 -1 11q-3 7 -10 13q-7 7 -12 8q-6 2 -8 -3l-34 -63h-57l18 34q2 5 0 11q-3 7 -10 13q-9 7 -12 8q-6 2 -9 -3l-33 -63h-104q-6 0 -6 -5q-1 -4 3 -13q5 -6 12 -12q7 -5 11 -5h65l-38 -73h-85q-5 0 -5 -5
q-1 -5 3 -12q6 -8 11 -12q7 -5 12 -5h46l-31 -58q-2 -4 1 -11q4 -8 9 -13q7 -5 13 -7t8 2l46 87h57l-31 -58q-2 -4 1 -11q4 -8 10 -13q5 -5 12 -7q6 -2 8 2l46 87h92q5 0 7 5q0 7 -4 12q-5 8 -11 12q-6 5 -12 5h-54l39 73h73zM141 312l39 73h57l-39 -73h-57z" />
    <glyph glyph-name="dollar" unicode="$" horiz-adv-x="404" 
d="M473 644q19 21 17 67q0 24 -7 44q-11 29 -33 48l29 47q6 10 -10 24q-15 15 -21 6l-33 -55q-23 9 -52 9q-44 -1 -78 -20q-32 -18 -49 -52q-19 -32 -17 -76q0 -58 34 -123l-120 -196q-9 5 -17 16q-8 10 -14 30q-4 23 3 41q15 39 69 58q11 4 -2 20q-12 18 -23 14
q-59 -21 -76 -65q-9 -24 -3 -52q6 -29 25 -54q11 -13 26 -27l-40 -65q-6 -10 10 -24q15 -15 21 -6l45 74q18 -5 32 -5q37 0 72 19q28 17 42 40q17 27 16 63q0 44 -29 99l149 242q1 0 1 -0.5t1 -0.5q6 -6 11 -18q5 -14 5 -34q2 -40 -13 -57q-8 -7 8 -23q15 -16 21 -8z
M398 799l-130 -212q-15 38 -17 78q0 38 16 68q16 31 46 48q31 18 71 18h14zM175 357l100 162q10 -26 12 -53q0 -32 -15 -55q-12 -21 -38 -37q-28 -16 -59 -17z" />
    <glyph glyph-name="percent" unicode="%" horiz-adv-x="468" 
d="M376 728l-305 -619q-6 -9 11 -24q15 -15 20 -4l305 618q6 9 -11 24q-6 6 -12.5 7.5t-7.5 -2.5zM263 703q-12 0 -20.5 -8.5t-8.5 -20.5t8.5 -20.5t20.5 -8.5t20.5 8.5t8.5 20.5t-8.5 20.5t-20.5 8.5zM232 192q-12 0 -20.5 -8.5t-8.5 -20.5t8.5 -20.5t20.5 -8.5t20.5 8.5
t8.5 20.5t-8.5 20.5t-20.5 8.5z" />
    <glyph glyph-name="ampersand" unicode="&#x26;" horiz-adv-x="618" 
d="M423 369q37 48 17 99q-14 36 -48 51q-22 9 -46 8q-23 -2 -47 -11q-70 -27 -96 -84q-32 -71 30 -131q-22 -7 -45 -18t-55 -31t-58.5 -51.5t-41.5 -68.5q-20 -54 -6 -91q11 -33 44 -50q22 -12 51 -10q61 3 117 59q85 83 37 146q62 25 99.5 38t37.5 8q2 -16 17 -24
q4 -3 8 -3.5t6 1.5t2 5q-1 31 -47 33t-111 -18t-103 -34t-59 -23h-1q-9 -5 3 -21q13 -18 23 -13l109 39q23 -32 -50 -103q-52 -51 -110 -56q-24 0 -34 6q-5 3 -9 10q-10 29 8 73q17 43 50 77.5t71.5 53.5t56.5 26t33 11q5 0 5 7q-2 15 -18 24l-3 3q-3 2 -8 6t-10 10t-9 14.5
t-6.5 18t-0.5 22.5t8 26q24 53 90 79q21 8 44 10q21 2 32 -4q7 -3 10 -11q12 -29 -4.5 -60t-38.5 -47l-22 -17q-7 -5 3 -19q10 -17 23 -15l69 16q10 3 -1 20q-6 9 -16 14z" />
    <glyph glyph-name="quotesingle" unicode="'" horiz-adv-x="180" 
d="M65 680q1 -3 1 -9q0 -20 -15 -38q-6 -8 8 -24q15 -15 22 -7q18 21 18 48q0 10 -4 22q-5 15 -15 24l-3 3q-10 8 -18 8q-12 0 -2 -17q2 -4 8 -10z" />
    <glyph glyph-name="parenleft" unicode="(" horiz-adv-x="377" 
d="M108 146v1q-6 13 -11 30t-14 60t-4.5 89t18.5 100t56 111t106 106q8 7 -6 23q-15 16 -22 9q-58 -43 -97 -95t-58 -97t-25 -97.5t-5 -85t10.5 -73.5t12.5 -49.5t10 -24.5v-1q7 -16 22 -20q6 -2 8 2t-1 12z" />
    <glyph glyph-name="parenright" unicode=")" horiz-adv-x="302" 
d="M193 647v-1q8 -18 15 -40t13 -82.5t-4.5 -116.5t-54 -127.5t-120.5 -129.5q-8 -8 6 -23q15 -15 23 -9q57 43 96.5 95t58.5 97t24.5 97.5t4.5 85t-10.5 73.5t-12.5 49.5t-10 24.5v1q-7 16 -22 20q-6 1 -8 -3t1 -11z" />
    <glyph glyph-name="asterisk" unicode="*" horiz-adv-x="330" 
d="M72 773l38 -65l-69 13q-6 1 -8 -3t1 -11q9 -17 23 -20l14 -3l-36 -23q-9 -6 5 -22t23 -11l31 20l-11 -28q-4 -11 12 -25q15 -13 20 -3l25 65l20 -35q11 -17 23 -17q5 -1 6 4t-3 13l-27 45l73 -14q6 -1 8 3.5t-1 11.5q-9 17 -23 20l-45 8l69 44q9 6 -5 22t-23 11l-35 -22
l15 37q4 10 -12 24t-20 3l-35 -88l-27 46q-8 16 -23 18q-12 0 -3 -18z" />
    <glyph glyph-name="plus" unicode="+" horiz-adv-x="506" 
d="M188 293q0 -5 5 -13t11 -12q8 -4 12 -3q5 0 5 6v134h134q4 0 6 5q1 4 -3 12q-5 9 -11 13q-8 5 -13 5h-113v112q0 5 -5 13q-4 6 -12 11t-11 4q-5 -2 -5 -6v-134h-134q-6 -2 -6 -5q-2 -5 3 -13t12 -12q7 -5 11 -5h114v-112z" />
    <glyph glyph-name="comma" unicode="," horiz-adv-x="437" 
d="M148 195q-21 2 -21 -9q2 -10 22 -12h4.5t9 0.5t11.5 2t12 4.5t12.5 8t10 12.5t6 18.5t0.5 24q-2 10 -23 12q-8 0 -14.5 -2.5t-5.5 -6.5q2 -24 -4 -37t-13 -14z" />
    <glyph glyph-name="hyphen" unicode="-" horiz-adv-x="485" 
d="M78 405h280q14 0 3 17q-11 18 -23 18h-281q-13 0 -2 -18q9 -17 23 -17z" />
    <glyph glyph-name="hyphen" unicode="&#xad;" horiz-adv-x="485" 
d="M78 405h280q14 0 3 17q-11 18 -23 18h-281q-13 0 -2 -18q9 -17 23 -17z" />
    <glyph glyph-name="period" unicode="." horiz-adv-x="192" 
d="M88 233q-11 0 -18 -7t-7 -17t7.5 -17t17.5 -7t17 7t7 17t-7 17t-17 7z" />
    <glyph glyph-name="slash" unicode="/" horiz-adv-x="408" 
d="M358 630l-349 -527q-7 -8 9 -24q16 -14 21 -6l350 527q5 9 -10 24q-16 14 -21 6z" />
    <glyph glyph-name="zero" unicode="0" horiz-adv-x="677" 
d="M460 829q46 45 97 56q35 8 63 -3q22 -10 33 -31q45 -84 -21 -274q-53 -152 -162 -285.5t-221 -201.5q-62 -39 -111 -46q-43 -6 -61 12q-21 22 -15 92q17 209 235 464q-13 -54 -8 -80.5t17 -32.5l13 -6q6 -1 7.5 3.5t-1.5 11.5q-9 18 -23 20v10q7 34 66 152
q28 29 56.5 55.5t41.5 38.5l14 13q9 5 -6 22q-9 9 -14 10zM29 171q-7 -87 34 -131q38 -39 98 -30q53 8 116 47q113 69 223 204.5t164 288.5q68 197 16 298q-24 47 -70 66q-34 15 -77 5q-47 -10 -93 -50t-79 -102q-19 -38 -22 -45q-289 -301 -310 -551z" />
    <glyph glyph-name="one" unicode="1" horiz-adv-x="408" 
d="M254 759q-12 -19 24 -33q4 -1 50 31t90 65l45 33q-411 -740 -426 -764q-10 -16 3 -27.5t26 -9.5q5 0 121.5 208t230.5 416l113 208q0 3 -0.5 7.5t-8 12.5t-23.5 10q-15 2 -76.5 -37.5t-114.5 -79.5z" />
    <glyph glyph-name="two" unicode="2" horiz-adv-x="657" 
d="M351 706q0 4 0.5 11t7.5 27t19.5 39t41 44t67.5 45q28 15 66.5 21t78 -1.5t60.5 -31.5q15 -18 16 -45q0 -66 -74 -147q-107 -118 -443 -382q-57 -45 -82.5 -65.5t-59.5 -49t-46 -43t-10 -21.5q7 -26 46.5 -26t95.5 14q72 14 116 21.5t110 13.5t102.5 -4.5t43.5 -37.5
q6 -17 20 -23q7 -3 10.5 -1t1.5 9q-8 32 -31 53t-62.5 28t-74 9t-91 -5.5t-85.5 -12.5t-84 -16q-24 -4 -44 -14q-8 -3 -10 -2.5t-4 8.5q-1 2 5 7.5t21 17.5t32.5 25t48.5 36.5t60 46.5q333 262 444 383q78 86 76 156q0 43 -32 80q-43 48 -118 56t-130 -23q-41 -21 -70.5 -47
t-42.5 -48.5t-20.5 -42t-8.5 -30.5v-11q0 -13 17 -24q16 -11 16 3z" />
    <glyph glyph-name="three" unicode="3" horiz-adv-x="608" 
d="M229 754q1 25 26 57t65 59q80 56 160 56q40 0 62 -17q9 -9 12 -24q3 -23 -10 -51q-30 -66 -137 -127q-67 -37 -115 -75q-21 -4 -41.5 -9t-30 -8.5t-10.5 -4.5q-2 0 -2 -2q-1 -1 -2 -3.5t-2.5 -7.5t0 -9t8.5 -6t20 0q4 -5 44 4t85 17t85.5 -11.5t47.5 -73.5q3 -12 1 -28
q-2 -60 -43.5 -130.5t-106.5 -135.5q-64 -62 -133 -104t-122 -49q-15 -2 -22 -1q-32 0 -43 13q-10 10 -10 36q0 31 17 70q22 47 64 90.5t97 70.5q10 5 -3 21q-14 17 -23 12q-57 -27 -100.5 -72t-65.5 -94q-19 -43 -19 -77q0 -42 30 -74q30 -30 75 -31q9 -1 26 1
q55 7 126 50.5t135 106.5q67 66 109 138.5t45 136.5q1 11 -1 31q-18 134 -161 138q7 4 30.5 16.5t37.5 20.5q110 62 142 131q15 34 10 63q-6 36 -37 62q-36 30 -89 30q-84 0 -169 -57q-42 -30 -68 -64.5t-27 -62.5q0 -13 16 -24q15 -12 17 2z" />
    <glyph glyph-name="four" unicode="4" horiz-adv-x="468" 
d="M259 929q-57 -57 -181.5 -247.5t-33.5 -199.5q74 -8 268 0l-221 -404q-5 -9 10 -24q16 -14 21 -6l239 435q100 5 105 5q12 2 1 18q-11 19 -23 17q-25 -1 -63 -3l189 346q5 10 -10 24q-16 14 -21 6l-207 -378q-208 -9 -283 0q-33 3 91 179t149 201q7 8 -9 24q-15 15 -21 7
z" />
    <glyph glyph-name="five" unicode="5" horiz-adv-x="587" 
d="M753 890q-12 2 -31.5 5.5t-72.5 9.5t-97.5 5.5t-91 -12.5t-67.5 -37q-33 -38 -80.5 -108.5t-78.5 -121.5l-31 -51q-5 -9 10 -24q12 -12 19 -7q250 96 276 -30q7 -42 -11 -99q-38 -112 -149 -225t-213 -134q-37 -7 -68 2q-45 15 -55 43q-7 20 0 49q7 27 26 54
q20 27 44.5 44.5t43.5 16.5q3 0 5 2t1.5 6t-3.5 9q-9 17 -23 17q-22 1 -49.5 -17.5t-48.5 -47.5t-28 -58q-9 -33 1 -64q21 -60 98 -87q38 -12 80 -3q102 21 219 137q110 110 151 229q20 60 11 110q-9 43 -32 70t-51.5 37.5t-64.5 11.5t-65 -4t-60 -14q102 163 156 226
q23 28 74.5 39t119 5.5t92.5 -9t58 -9.5h2q6 -2 8 2t-1 12q-9 17 -23 20z" />
    <glyph glyph-name="six" unicode="6" horiz-adv-x="438" 
d="M484 921q-396 -396 -477 -639q-37 -114 -6 -181q21 -46 65 -66q35 -15 77 -9q98 15 176 113q42 52 61.5 112.5t14.5 113.5q-5 50 -28 85q-29 43 -75 55q-57 15 -137 -31q65 95 154.5 199t145.5 160t58 56q8 8 -7 23q-15 16 -22 9zM148 463q0 -5 7 -14q13 -17 22 -11
q79 46 130 33q24 -6 37 -25q15 -22 18 -61q4 -51 -14.5 -108t-58.5 -107q-37 -46 -82 -74.5t-87 -34.5q-36 -6 -62 6q-19 8 -28 28q-25 55 9 160q32 94 109 208z" />
    <glyph glyph-name="seven" unicode="7" horiz-adv-x="418" 
d="M164 521q-52 -5 -57 -6q-5 -2 -5 -6q-1 -4 4 -13q4 -6 12 -11q7 -5 11 -5l5 1q2 0 22.5 2.5t38.5 4.5q8 1 24 2.5t24 2.5q-17 -23 -51 -71q-155 -217 -220 -367q-1 -4 3 -11q3 -7 9 -13q7 -5 13 -7q5 -2 7 4q61 143 219 364q41 57 78 108q16 2 45 5t41 5q35 4 41 4
q1 -6 8 -13q4 -6 12 -11q5 -3 10 -1q4 1 3 9q-8 20 -59 26q-32 4 -81 4q103 141 171 230q59 77 71 95q10 22 -26 31q-42 8 -99 7q-64 -2 -128 -6q-33 -2 -110 -10q-45 -6 -48 -6q-4 -1 -4 -6q-1 -4 4 -13q4 -8 12 -12q5 -4 11 -4l7 1q4 1 16.5 2.5t28 4t31.5 4.5
q12 2 52.5 7.5t64.5 8.5q6 1 109 14q46 6 48 6q-12 -18 -70 -93q-76 -97 -195 -262q-56 -3 -103 -6z" />
    <glyph glyph-name="eight" unicode="8" horiz-adv-x="647" 
d="M255 444q2 -1 7 -1q19 4 49 13q37 -102 28 -192q-7 -71 -59 -121t-124 -70q-53 -14 -97 -10q-45 3 -71 22q-39 29 -21 97q11 45 36.5 84.5t55 66.5t67 50t67.5 36.5t62 24.5zM-66 208q-24 -95 52 -149q36 -26 92 -31q49 -5 103 11q75 20 129 72.5t62 128.5
q10 101 -37 224q42 14 83 33t90 48t90.5 71t66.5 91q39 75 16 130q-17 42 -61 65q-36 17 -80 17q-57 -1 -121 -31t-118 -88q-26 -28 -39 -57.5t-16.5 -52.5t3.5 -57t14.5 -54.5t23.5 -60.5l9 -21q-18 -4 -40 -10.5t-61.5 -21t-77 -37.5t-75 -52.5t-66.5 -73.5t-42 -94z
M317 510q-18 45 -26 69.5t-12 60t9 66.5t42 63q53 56 114.5 85.5t116.5 29.5q40 0 65 -13q19 -9 25 -26q18 -41 -17 -109q-78 -152 -313 -234z" />
    <glyph glyph-name="nine" unicode="9" horiz-adv-x="488" 
d="M430 632v-1q-8 -11 -39 -39t-68 -51q-107 -68 -165 -34l-3 1q-13 9 -20 29q-12 36 3 93q15 53 51 110q35 56 81.5 97.5t95.5 56.5q41 13 72 11q30 -1 39 -14q11 -16 13 -50q1 -50 -17 -115q-9 -32 -42 -93zM462 604q34 62 43 96q19 70 18 120q-2 46 -25 78q-30 39 -79 42
q-31 2 -78 -12q-50 -16 -98 -58.5t-85 -99.5t-52 -114q-16 -62 -3 -107q14 -43 53 -68q1 0 3 -2q1 -1 2 -1q76 -44 190 30l8 6q-37 -59 -106 -154q-158 -213 -269 -295q-8 -5 5 -22q15 -17 23 -10q111 81 272 297q106 143 177 272q0 1 1 2z" />
    <glyph glyph-name="colon" unicode=":" horiz-adv-x="249" 
d="M87 226q-11 0 -18 -7t-7 -18q0 -10 7.5 -17t17.5 -7t17 7t7 17t-7 17.5t-17 7.5zM176 437q-10 0 -17 -7t-7 -17t7 -17.5t17 -7.5t17.5 7t7.5 18q0 10 -7.5 17t-17.5 7z" />
    <glyph glyph-name="semicolon" unicode=";" horiz-adv-x="257" 
d="M140 439q-10 0 -17 -7t-7 -17t7 -17t17 -7t17 7t7 17t-7 17t-17 7zM79 243q2 -2 4 -6.5t-4.5 -17.5t-27.5 -25q-9 -6 5 -22q13 -16 22 -11q30 17 33.5 41.5t-3.5 36t-12 16.5q-12 16 -22 10q-9 -6 5 -22z" />
    <glyph glyph-name="semicolon" unicode="&#x37e;" horiz-adv-x="257" 
d="M140 439q-10 0 -17 -7t-7 -17t7 -17t17 -7t17 7t7 17t-7 17t-17 7zM79 243q2 -2 4 -6.5t-4.5 -17.5t-27.5 -25q-9 -6 5 -22q13 -16 22 -11q30 17 33.5 41.5t-3.5 36t-12 16.5q-12 16 -22 10q-9 -6 5 -22z" />
    <glyph glyph-name="less" unicode="&#x3c;" horiz-adv-x="477" 
d="M308 468l-6 -2q-264 -73 -291 -135q-10 -26 25 -47q47 -28 88.5 -47.5t59.5 -24.5l18 -6q16 -4 19 11q4 14 -11 19q-57 14 -159 74q-37 22 62 63q91 38 203 65q14 4 11 19q-4 14 -19 11z" />
    <glyph glyph-name="equal" unicode="=" horiz-adv-x="477" 
d="M148 444h281q13 0 2 17q-11 18 -23 18h-281q-13 0 -2 -18q9 -17 23 -17zM148 343h281q13 0 2 17q-11 18 -23 18h-281q-13 0 -2 -18q9 -17 23 -17z" />
    <glyph glyph-name="greater" unicode="&#x3e;" horiz-adv-x="400" 
d="M11 195l6 2q262 72 291 134q11 27 -25 49q-47 27 -88.5 46.5t-59.5 25.5l-18 5q-16 4 -19 -10q-4 -16 11 -19l7 -2q6 -2 20 -7.5t32 -13.5t45 -21.5t55 -30.5q37 -22 -62 -63q-91 -38 -203 -65q-14 -4 -11 -19q4 -15 19 -11z" />
    <glyph glyph-name="question" unicode="?" horiz-adv-x="326" 
d="M208 559q1 3 2.5 8t9 18t18.5 23.5t31.5 20t45.5 12.5q27 3 42 -7q6 -4 9 -14q6 -19 -1 -43q-15 -55 -77 -105l-20 -16q-92 -75 -122.5 -112t-35.5 -96q0 -14 16 -25q17 -11 17 1q4 56 33.5 91t120.5 109l20 16q65 53 80 110q9 31 1 57q-11 34 -41 54q-27 18 -64 15
q-20 -2 -37.5 -8t-29.5 -14.5t-21 -17.5t-14.5 -18t-9 -16.5t-5.5 -11.5l-1 -5q-2 -11 14 -25q15 -12 19 -1zM119 203q-11 0 -18 -7.5t-7 -17.5t7.5 -17t17.5 -7t17 7t7 17t-7 17.5t-17 7.5z" />
    <glyph glyph-name="at" unicode="@" horiz-adv-x="575" 
d="M337 346q-62 -52 -128 -87q-27 -13 -39 -12q-1 4 1 19q6 25 27.5 51t54.5 41q67 31 84 -12zM227 392q-35 -16 -58 -44.5t-30 -56.5q-5 -18 0 -33q8 -26 31 -39q26 -15 66 7q50 27 98 63q0 -12 5 -25q14 -28 37 -31l1 -1q14 -2 28 6q16 9 28 22q47 51 39 122q-3 35 -30 69
q-31 37 -74 53q-43 14 -90 10q-79 -10 -153 -70q-83 -68 -104 -152q-9 -39 -1 -75q8 -39 32 -68q30 -38 73 -48q60 -14 132 11q39 13 71 34t47 40q7 8 -8 23t-22 7q-34 -44 -113 -70q-67 -24 -122 -10q-25 4 -40 23q-14 17 -18 42q-7 31 2 65q19 80 99 146q73 59 147 67
q43 4 79 -8q27 -10 44 -30q14 -17 17 -40q7 -62 -37 -110q-12 -13 -25 -20q-8 -4 -13 -4q-2 15 9.5 37t23.5 36l13 14q7 7 -7 23t-22 8l-3 -3q-3 -3 -9 -8t-12 -11q-40 71 -131 29z" />
    <glyph glyph-name="A" unicode="A" horiz-adv-x="1239" 
d="M129 -64q-1 0 -19 -17.5t-35 -40.5t-14 -35q9 -36 39 -28q71 18 571 528q147 8 373 29q-62 -130 -164 -311q-70 -126 -66 -142q9 -32 33 -26q17 3 70 77q90 126 142 260q31 78 42 148q26 3 51.5 5.5t36.5 3.5l11 1q5 1 5 6.5t-5 12.5q-11 18 -23 16q-25 -3 -68 -7
q25 52 44 101q105 254 135 361q17 69 8.5 93.5t-40.5 21.5q-14 -1 -284 -280q-87 57 -222.5 57.5t-264 -37.5t-247.5 -100q-84 -43 -146 -92q-61 -50 -75 -86q-17 -40 20 -73q75 -66 570 -43q-319 -325 -448 -432q2 9 -8 20q-15 16 -22 9zM642 375q-529 -32 -597 28
q-5 5 3 24q14 34 73 82q63 50 144 91q82 43 173 75t184.5 50.5t182 12t150.5 -41.5l-40 -41q-166 -172 -273 -280zM944 623l47 49q55 -45 74 -116q14 -53 7 -124l-10 -21q-212 -22 -355 -31q27 28 237 243zM1278 958q2 0 -0.5 -4t-10 -18.5t-12.5 -31.5q-28 -104 -134 -359
q-7 -18 -17 -41q-4 26 -8 38q-23 88 -90 145q263 270 272 271zM1000 194q-33 -70 -70 -129q49 88 70 129z" />
    <glyph glyph-name="B" unicode="B" horiz-adv-x="1220" 
d="M616 486q-60 0 -88 7q1 1 4.5 2.5t6.5 2.5q22 9 71 15q46 6 108 6q52 0 107 -6q-109 -29 -209 -27zM587 548q-53 -8 -74 -17q-26 -11 -23 -27h1q1 -8 10 -18q15 -15 45 -24l-40 -68q-97 33 -194 14q-124 -25 -209 -100q-86 -74 -81 -157q6 -89 137 -140q119 -42 264 -44
q136 -1 277 31q155 38 269 105q113 67 148 154q15 43 5 87q-17 65 -62 104q-48 42 -110 65q73 30 129 79q44 40 62 84q22 57 -1 120q-26 66 -104 119q-92 63 -259 88q-135 18 -300 -23q-165 -42 -312 -136q-127 -80 -213 -190q-87 -111 -113 -251q0 -5 4 -12q5 -8 11 -13
q7 -5 12 -5q4 0 6 5q24 136 111 246q84 108 209 187q148 94 308 134q162 41 294 23q160 -24 242 -80q56 -38 74 -83q19 -48 -1 -101q-16 -41 -59 -80q-71 -60 -163 -92q-94 22 -190 22q-33 0 -48 -1l104 175q1 4 0 10q-3 6 -9 12q-6 8 -12 9q-6 2 -10 -1l-77 -83
q-3 -3 -1 -9q1 -6 9 -14l4 -4l-59 -99q-2 0 -5.5 -0.5t-5.5 -0.5zM636 451q97 -2 215 28q32 8 59 18q66 -16 117 -50q50 -35 63 -88q8 -39 -5 -74q-33 -83 -144 -149q-110 -67 -265 -103q-138 -32 -271 -31q-139 0 -257 42q-90 34 -93 87q-3 74 77 145q82 71 204 97
q79 15 155 -4l-48 -81q-3 -4 0 -11t10 -13q7 -7 12 -8q7 -2 9 2l58 98q92 -35 158 -144q4 -8 12 -12q6 -4 12 -6q4 2 6 6q1 3 -4 12q-72 120 -170 167l44 75q21 -3 46 -3z" />
    <glyph glyph-name="C" unicode="C" horiz-adv-x="872" 
d="M493 498q85 3 179 43.5t173 102.5q73 56 114 118q43 66 29 115q-9 32 -39 56q-17 12 -30 17q-52 20 -134 4t-177 -65q-78 -40 -137.5 -77t-147 -115.5t-162.5 -179.5q-83 -113 -118 -201q-62 -154 -29 -263q26 -82 100 -120q68 -35 166 -19q257 43 629 387q7 7 -7 23
q-15 15 -22 9q-371 -343 -623 -384q-90 -15 -149 14q-45 24 -62 78q-31 99 29 247q38 93 116 198q57 77 117.5 138.5t121 105.5t104.5 70.5t101 55.5q91 47 169.5 63.5t123.5 -1.5q10 -4 16 -9q9 -7 13 -19q10 -40 -29 -98q-38 -59 -112 -116q-77 -61 -169 -100.5
t-175 -43.5q-13 0 -2 -17q11 -19 23 -17z" />
    <glyph glyph-name="D" unicode="D" horiz-adv-x="1133" 
d="M-260 449v1q39 98 131 197q217 237 575 263h5q272 19 441 -79q108 -64 152 -162q46 -103 20 -220q-34 -149 -167 -269q-104 -94 -232.5 -137.5t-259.5 -41.5q-128 1 -237 46q-96 41 -126 97q-23 40 -10 85q24 86 113 127q48 23 116 26q63 3 126 -15q21 -6 42 -15
q-174 -237 -106 -231q9 1 23 7q11 4 -3 20q-13 18 -23 13q73 89 143 175q90 -48 129 -131q7 -16 22 -20q6 -2 8 2.5t-2 11.5q-43 95 -141 156l115 140q6 8 -7 22q-14 16 -23 10l-73 -55q-8 -5 5 -22l4 -4q-41 -53 -55 -73q-34 17 -72 28q-69 19 -133 16q-69 -3 -122 -28
q-92 -43 -118 -133q-16 -56 15 -110q43 -80 162 -131q111 -46 248 -49q133 -2 264 42t237 140q136 121 170 275q28 126 -23 239q-55 122 -184 198q-180 104 -459 85q-153 -11 -283 -63t-203 -108t-133.5 -133.5t-75 -105t-26.5 -57.5l-1 -1q-4 -12 12 -24q16 -14 20 -4z" />
    <glyph glyph-name="E" unicode="E" horiz-adv-x="691" 
d="M540 858l-3 -4q-3 -4 -11.5 -14.5t-15.5 -19.5q-49 0 -133 -2q-94 -1 -226 -6q-11 -1 -28 -2t-29.5 -1.5t-21.5 -1.5q-28 2 -28 -1q0 -1 2 -2q-76 -10 8 -26q21 -4 52 -8q1 0 50 -2q61 -1 102 -14.5t57.5 -34t22 -45t-0.5 -49t-14 -44.5t-16 -33l-8 -12q-2 -3 0 -11
q-7 -11 -21.5 -33.5t-21.5 -33.5l-155 -13q-12 -2 -1 -19q11 -18 23 -16l14 2q14 1 41.5 4t54.5 6q-242 -393 -95 -401q88 -5 275 4q44 2 90.5 4.5t68.5 4.5l23 1q8 -17 22 -22q6 -2 8.5 1t0.5 10q-11 30 -77 36.5t-158 -1.5q-198 -7 -272 -3q-49 2 0 105.5t158 264.5
q258 24 262 4q2 -15 19 -23q7 -4 11 -2t2 8q-11 59 -271 47q110 160 238 326q691 7 693 -23q2 -15 18 -24q4 -3 8 -3.5t5.5 1.5t1.5 6q-3 40 -206.5 58t-493.5 19l6 8q8 8 -9 23q-15 17 -21 7zM380 642q6 101 -101 139q51 1 119 3q13 0 42 0.5t44 0.5q-80 -109 -104 -143z
" />
    <glyph glyph-name="F" unicode="F" horiz-adv-x="658" 
d="M601 855l-5 -6q-4 -6 -13.5 -20.5t-19.5 -28.5q-219 -16 -388 -46h-22q-34 -2 -66.5 -8t-50 -12t-16.5 -9q2 -14 33 -18l-1 1q3 1 8 2q-3 -3 -4 -3q41 -5 113 7q9 2 29 6q117 0 167 -36q85 -61 -55 -256q-64 -2 -91 -4q-31 15 -79 8q-33 -4 -47.5 -9t-13.5 -10
q5 -30 143 -24q11 -9 12 -23q4 -31 -8 -78q-2 -4 -11.5 -19t-20 -32t-25.5 -42t-28 -47.5t-27 -48.5t-23.5 -46.5t-17 -40t-7 -29.5t5.5 -15q15 -8 58.5 45.5t79.5 126.5q29 59 45 110q5 16 11 46l67 97q2 0 6 2q89 5 153.5 7t64.5 0q1 -6 24 -19q4 -3 8 -3.5t5.5 1.5t1.5 6
q-4 44 -234 42q15 24 27 45q40 58 109.5 158.5t91.5 133.5q223 16 422 13q132 -3 208 -15q16 -3 31 -4.5t21 -2.5l6 -1v-1q-2 -12 14 -24q17 -13 19 -1v5v1q-3 44 -108 62q-88 14 -211 15q-152 4 -375 -9l14 21q8 8 -9 23q-15 17 -21 7zM426 597q0 70 -59 113q-24 16 -56 27
q108 15 226 24q-31 -44 -111 -164zM266 352q-3 22 -12 38q24 2 38 2z" />
    <glyph glyph-name="G" unicode="G" horiz-adv-x="774" 
d="M670 595q29 16 55.5 63t35.5 98q7 44 -2 78q-11 46 -51 74q-54 38 -154 11l-9 -2q-100 -29 -201.5 -101.5t-179.5 -168.5q-80 -100 -116.5 -204.5t-13.5 -193.5l2 -5q12 -42 40 -72q57 -60 163 -45q89 13 198 71q85 45 160 105q-42 -66 -87 -133q-15 1 -31 -3
q-76 -20 -167 -144q-38 -51 -60 -98t-17 -66q11 -40 45 -31q61 15 254 303q21 -11 31 -49q4 -16 20 -23q6 -3 9.5 -0.5t1.5 9.5q-15 62 -46 86q27 40 55 84t50 78.5t39.5 62.5t27.5 45t11 18q6 9 -10 23q-15 17 -21 7q-41 -61 -121 -126.5t-171 -113.5q-109 -58 -194 -70
q-89 -13 -126 26q-14 14 -23 43l-1 4q-22 83 14 183.5t114 197.5q77 95 177 167t199 100l9 2q88 23 128 -3q15 -11 20 -34q7 -29 1 -67q-8 -49 -32.5 -93t-52.5 -60q-11 -5 4 -22q13 -17 23 -11zM270 -131q16 49 72 124q74 100 137 131q-148 -216 -209 -255z" />
    <glyph glyph-name="H" unicode="H" horiz-adv-x="1344" 
d="M1494 917l16 99q2 13 -15 24q-14 12 -18 2l-360 -643q-17 -1 -106 -5q-9 90 -46 159q-43 81 -114 131l132 207q5 9 -10 24q-16 14 -21 6l-136 -214q-127 72 -317 66q-159 -6 -279 -51.5t-179 -111.5q-36 -39 -43 -85q-6 -50 32 -93q79 -89 303 -88q136 0 256 3l-108 -171
q-5 -9 10 -24t21 -6l127 202q163 2 342 10q-2 -182 -109 -395q-11 -20 -32.5 -59t-32.5 -58q-5 -8 10 -24q16 -13 21 -5q38 62 65 117l242 431l130 7q12 2 2 19q-12 18 -23 16l-10 -1q-9 0 -31 -1.5t-47 -2.5l297 530q6 -10 12 -15q17 -13 19 0zM839 665q62 -42 98 -109
q37 -69 43 -163q-231 -8 -319 -10zM611 382q-96 -2 -298 -4q-208 0 -267 67q-20 23 -15 56q5 38 40 78q57 64 175 108.5t274 50.5q170 6 283 -52zM995 182q21 93 18 177q48 2 83 3z" />
    <glyph glyph-name="I" unicode="I" horiz-adv-x="464" 
d="M678 929q-1 -1 -31 -42l-247 4q-12 0 -3 -17q11 -18 23 -18l201 -3q-380 -507 -483 -709q-57 2 -105 1.5t-79 -1.5l-31 -2q-13 0 -2 -18q12 -18 23 -16h10q10 1 27.5 1.5t38.5 1.5t49.5 1.5t54.5 1.5q-1 -1 -2.5 -5t-2.5 -6q6 9 7 11q237 4 241 -17q4 -16 19 -23
q7 -4 10.5 -2t2.5 9q-10 53 -252 63q116 165 526 708l203 -3q12 0 3 17q-11 18 -24 18l-156 2l9 12q6 9 -9 24t-21 7z" />
    <glyph glyph-name="J" unicode="J" horiz-adv-x="732" 
d="M192 463q-23 5 -35 13q-24 13 -33 41q-14 35 -6 82q7 44 35 93q60 103 194.5 177.5t269.5 91.5q78 11 136 -3q52 -13 70 -41q35 -51 -10 -158q-54 -125 -164 -295q-206 -70 -439 -156q-78 -29 -122.5 -62.5t-58.5 -70.5t-15 -83t8 -101q10 -81 11 -136q0 -33 18 -52
q33 -37 94 2q45 28 124 105q94 94 204.5 235.5t204.5 286.5q96 33 99 33q10 4 -3 21q-13 16 -23 13l-38 -13q92 152 131 245q51 115 3 189q-36 55 -109 72q-61 15 -143 4q-137 -18 -274 -94t-199 -181q-28 -48 -36 -97q-9 -51 7 -97q20 -54 66 -80q22 -13 50 -18q6 -1 7.5 3
t-1.5 12q-10 17 -23 19zM239 -58q-78 -78 -122 -105t-50 -21l-2 18q-1 44 -10 138q-8 52 -7.5 96t14.5 79.5t56.5 67t117.5 59.5q183 68 376 135q-191 -285 -373 -467z" />
    <glyph glyph-name="K" unicode="K" horiz-adv-x="1140" 
d="M-89 651q49 50 140 92.5t189 61.5q187 37 263 -31q79 -70 -92 -325q-23 -34 -42 -59q-35 -27 -70 -71t-50 -69.5t-19 -35.5q-97 -113 -224 -247q-8 -8 8 -23q15 -17 21 -8q122 127 225 247v1q79 93 222 212q56 -2 99 -68q72 -108 122.5 -162.5t107.5 -71.5
q60 -17 140 24.5t226 175.5q8 8 -6 23q-15 15 -23 9q-142 -132 -219 -173t-132 -25q-44 13 -86 60t-106 143q-43 67 -95 88q268 214 564 333q356 143 380 86q5 -15 -7 -46l-2 -3q-3 -10 12 -25q17 -13 20 -3l2 3q14 42 4 65q-44 113 -435 -44q-319 -127 -596 -359h-6
q178 269 66 369q-48 42 -130 52.5t-165 -7.5q-100 -20 -193 -63.5t-142 -94.5q-7 -7 7 -23q16 -14 22 -8z" />
    <glyph glyph-name="L" unicode="L" horiz-adv-x="723" 
d="M-14 466q229 -47 402 8q-163 -204 -342 -379q-45 -44 -12 -79q15 -16 50 -23t102 -5.5t111.5 4.5t143.5 11q129 11 200.5 15.5t170 6.5t149.5 -10.5t60 -38.5q5 -16 21 -22q6 -2 9 1t1 10q-6 18 -20 32.5t-37.5 24.5t-46.5 17.5t-60 11t-65.5 6t-76 1t-77.5 -2t-84 -4.5
t-82 -6t-84 -7q-91 -8 -136.5 -11.5t-106 -6.5t-90.5 0t-38 12q-1 1 5.5 8.5t22.5 23.5q207 201 392 443q139 71 221 216q55 98 72 200q16 84 -8 108q-10 11 -23 1q-4 -3 -9 -15q-58 -174 -238 -420q-3 -4 -19 -25t-24 -33q-194 -96 -470 -38q-6 1 -8 -3.5t1 -11.5
q9 -17 23 -20zM544 610q117 164 175 295q-18 -76 -61 -153q-48 -84 -114 -142zM754 992q3 7 4 8q3 2 1 -2q-1 -1 -5 -6z" />
    <glyph glyph-name="M" unicode="M" 
d="M62 488q-8 14 -5 41q6 57 60 126q53 67 120 104q53 29 96 23q5 0 6 -1q12 -11 1 -84q-12 -78 -52 -192q-41 -117 -97 -232q-64 -83 -106 -144q-38 -54 -58 -89q-22 -36 -18 -53t35 -11q8 2 18 11q62 53 160 256q104 135 202.5 244.5t153.5 144.5q35 23 38 17
q18 -27 -9 -199q-8 -57 -11 -83.5t1.5 -59.5t20.5 -46q9 -6 17 -6q21 1 88 76q58 65 148 184q25 34 28 37q-35 -114 -51 -211.5t-12 -186t42 -150.5t109 -88q7 -2 9.5 1t0.5 10q-6 17 -21 22q-64 23 -91.5 91t-20 166t34 205t71.5 229l8 22q139 198 235.5 365.5t94.5 222.5
q-1 21 -9.5 31t-24.5 9t-54.5 -54t-86.5 -140q-107 -194 -187 -405q-47 -68 -106 -146q-88 -117 -147 -183q-51 -58 -71 -69q1 23 18 133q9 59 12.5 91.5t2 73.5t-13.5 61q-33 51 -91 13q-82 -52 -261 -269q20 50 31 82q41 114 53 194q14 98 -29 133q-14 11 -29 12
q-48 6 -105 -25q-70 -37 -123 -107q-55 -70 -63 -132q-3 -36 11 -63q9 -16 23 -18q5 -1 6.5 4t-2.5 12zM1057 854q48 106 107 213q63 115 104 165q-34 -113 -211 -378z" />
    <glyph glyph-name="N" unicode="N" horiz-adv-x="826" 
d="M-243 743q1 1 8 11q28 33 76.5 68t104.5 55q144 51 243 -19q6 -4 14 -10q36 -29 39 -93.5t-19.5 -143.5t-54.5 -161.5t-69 -156t-60.5 -118t-30.5 -56.5l-1 -1q-6 -10 10 -24t21 -5q14 19 33 45t73.5 99t108.5 139t125 149.5t137 147t130.5 116t119.5 72t90 -0.5
q31 -16 -90 -290q-1 -3 -2 -5t-2 -4.5t-2 -4.5q-22 -49 -34 -76.5t-32 -76t-30 -78.5t-22.5 -73.5t-15.5 -72t-3 -63t9 -58.5t26.5 -46.5t43.5 -37.5q7 -4 11 -2.5t3 7.5q-2 15 -18 24q-18 11 -29 27t-13 40.5t-1.5 47t11 58t19 61t26.5 69t29 68.5t33 73t32 70
q43 96 65.5 164t21 128t-39.5 81q-44 24 -112 -1.5t-139.5 -81.5t-154.5 -139.5t-150 -162t-133 -163.5q187 419 47 533q-3 2 -9 6.5t-9 6.5q-116 82 -270 27q-58 -21 -108.5 -56.5t-77.5 -69.5q-6 -8 -9 -11q-6 -10 10 -24q15 -15 21 -7z" />
    <glyph glyph-name="O" unicode="O" horiz-adv-x="942" 
d="M1146 815q-176 35 -391 5q-109 43 -237 48q-225 7 -460.5 -78.5t-362.5 -236.5q-3 -4 1.5 -17.5t10.5 -19.5q14 -16 22 -8q126 150 364 237t461 81q80 -3 139 -17q-119 -23 -222 -69q-284 -126 -402 -404q-67 -154 -9 -251q40 -65 120 -90q67 -22 160 -11
q143 16 289 98.5t232 215.5q132 205 68 366q-32 78 -113 126q201 22 345 -10q6 -1 8 3t-1 11q-7 17 -22 21zM772 784q6 -2 10 -4q88 -39 117 -108q53 -130 -81 -338q-85 -132 -224 -215.5t-276 -100.5q-87 -9 -150 10q-59 19 -82 58q-47 78 14 222q117 273 397 399
q125 55 275 77z" />
    <glyph glyph-name="P" unicode="P" horiz-adv-x="775" 
d="M500 575l-12 -19q-60 46 -141 3q-106 -57 -220 -248q-16 6 -28 14q-29 15 -44 37l-1 1q-15 23 -16 46q-3 34 11 59q5 9 -10 24q-16 14 -21 5q-17 -33 -13 -69q5 -36 26 -70h1q26 -39 71 -63q2 -1 5.5 -3t5.5 -3q-1 -2 -4 -7t-4 -8q-50 -90 -79.5 -172.5t-25.5 -119.5
q3 -27 15 -39.5t34 -10.5q77 9 294 324q26 2 38 4q111 11 213 54.5t176 107.5q65 57 95 116q34 63 28 127q-8 66 -57 122q-58 67 -182 99.5t-278 26.5q-147 -5 -293 -44.5t-256 -109.5q-114 -71 -162 -173q-23 -49 -23 -92q0 -50 28 -97q41 -62 121 -100q7 -3 10.5 -0.5
t2.5 9.5q-4 16 -20 23q-64 29 -89 70q-20 31 -20 73q0 39 21 86q46 98 158 168q110 69 254 108.5t289 44.5q146 5 260.5 -21.5t162.5 -82.5q35 -41 40 -91q6 -58 -26 -117q-32 -61 -93 -113q-70 -61 -167.5 -103.5t-203.5 -54.5q56 84 136 211q7 -11 15 -24q12 -18 23 -18
q6 -1 7 3.5t-3 12.5q-13 27 -30 45q59 97 59 98q5 9 -9 23q-16 16 -21 7l-51 -63q-3 -5 3 -16zM169 299q106 172 205 226q59 33 101 10q-76 -123 -158 -244q-82 -5 -148 8zM292 255q-188 -270 -259 -287q-1 37 27.5 114t76.5 163q2 5 7.5 14.5t8.5 14.5q59 -19 139 -19z" />
    <glyph glyph-name="Q" unicode="Q" horiz-adv-x="905" 
d="M1128 837q-178 35 -391 5q-93 37 -221 40q-146 5 -304 -31t-302 -112.5t-229 -177.5q-7 -7 8 -23q14 -16 22 -8q126 150 363.5 237t460.5 81q81 -3 140 -17q-119 -23 -222 -69q-283 -125 -402 -404q-67 -154 -9 -251q40 -65 120 -90q32 -11 79 -14q-32 -10 -60 -20
t-41.5 -15.5t-13.5 -6.5q-11 -4 3 -21q13 -17 23 -12l2 1q202 82 399 101q217 21 351 -53q7 -4 11 -2.5t3 7.5q-2 15 -18 24q-146 81 -380 57q200 91 311 264q138 214 80 359q-32 78 -113 126q201 22 345 -10q6 -1 8 3t-1 11q-7 17 -22 21zM754 806q6 -2 10 -4
q88 -39 117 -108q52 -129 -81 -338q-85 -132 -224 -215.5t-276 -100.5q-87 -9 -150 10q-59 19 -82 58q-47 78 14 222q118 274 397 399q125 55 275 77z" />
    <glyph glyph-name="R" unicode="R" 
d="M531 580l-11 -19q-62 46 -142 3q-60 -33 -123.5 -110.5t-117.5 -174.5q-50 -91 -79.5 -172.5t-25.5 -119.5q3 -27 15.5 -39.5t34.5 -10.5q33 4 92 64.5t128.5 157t125 180t111.5 173.5q7 -10 15 -24q9 -16 23 -18q5 -1 6.5 4t-2.5 12q-14 25 -30 46q16 25 30.5 49.5
t21.5 36.5l7 11q5 9 -9 23q-16 14 -22 7l-50 -63q-5 -5 2 -16zM439 292q0 -2 14 -19.5t58.5 -53.5t109.5 -77t185.5 -93.5t268.5 -98.5q6 -2 8.5 1.5t-0.5 10.5q-5 16 -21 22q-139 43 -250 89.5t-176 86t-100 65.5t-56 49q135 -2 257.5 51t178.5 159q38 77 24.5 159
t-71.5 149q-67 78 -209.5 108.5t-296.5 16.5t-298.5 -52.5t-227.5 -90.5q-55 -35 -96 -82t-59.5 -100.5t-13.5 -105.5t44.5 -101t111.5 -83q7 -3 10.5 -0.5t1.5 9.5q-4 16 -20 23q-76 36 -99 91.5t1 112.5t68.5 108t100.5 86q79 49 214 89t279.5 58.5t277 -5t194.5 -94.5
q46 -54 50 -124t-31 -131q-56 -107 -173 -163t-245 -54h-4q-6 2 -9 2q-5 0 -5.5 -5.5t4.5 -12.5zM64 -27q-1 37 28 114t77 163q53 96 115 172.5t121 108.5q60 31 102 9q-53 -86 -107.5 -168.5t-121 -175.5t-124 -154t-90.5 -69z" />
    <glyph glyph-name="S" unicode="S" horiz-adv-x="768" 
d="M1175 704q9 7 12 25q4 31 -17 64q-23 40 -75 71q-82 47 -215 48.5t-252.5 -27t-212.5 -71.5q-27 -12 -53.5 -28t-57.5 -38.5t-53 -46.5t-40 -53.5t-18.5 -59.5t12.5 -64q14 -29 36.5 -51.5t59.5 -41t61 -28t73 -26.5q89 -31 126 -51q98 -55 47 -161q-42 -88 -162 -167
q-138 -90 -264 -95h-5q-20 -1 -43.5 1t-50 8.5t-44.5 22t-18 37.5q-2 69 119 166q10 6 -6 22q-15 17 -22 10q-126 -100 -124 -177q1 -71 69.5 -109.5t151.5 -34.5q135 2 271 94q122 83 165 183q52 124 -52 205q-16 13 -36 24q-34 19 -133 55q-41 14 -63 22.5t-52 22.5
t-48 29.5t-27 34.5q-13 23 -8.5 47t14.5 45t32 42.5t43 38.5t47.5 33.5t46.5 27t39 19.5q64 30 147.5 54.5t175.5 40t180.5 8.5t147.5 -40q34 -21 46 -42q12 -19 9 -40q-2 -12 -8 -17q-8 -8 7 -23q15 -16 22 -9z" />
    <glyph glyph-name="T" unicode="T" horiz-adv-x="536" 
d="M-194 734q233 46 693 60q-504 -796 -480 -826q19 -17 40 -10t39 24l17 16q7 8 -8 23q-14 16 -22 8q-3 -3 -8 -8.5l-15 -16.5t-17 -18.5t-8 -6.5q-6 8 513 817q40 1 85.5 2t101.5 2t86 2q363 10 442 13q-3 -6 6 -18q12 -16 23 -12l82 36q9 2 0 17q-11 19 -23 17
q-206 -11 -551 -18q-38 -1 -114.5 -2.5t-114.5 -2.5l18 27q5 8 -10 24q-16 14 -21 6l-38 -59q-493 -14 -740 -61q-11 -4 1 -20q11 -17 23 -15z" />
    <glyph glyph-name="U" unicode="U" horiz-adv-x="659" 
d="M-338 623q28 78 184 145q146 63 279 70q120 6 124 -45v-4q0 -28 -20.5 -75t-42.5 -84.5t-68 -111.5q-5 -8 -15 -24.5t-15 -25.5q-78 -129 -88 -234q-5 -58 15 -97q21 -44 60 -59.5t87 -3.5q119 31 365 291q-158 -290 -60 -395q15 -15 22 -8q7 8 -8 23q-27 28 -27 78.5
t20 107t56.5 126t75.5 129.5t85 125q91 111 165 214q7 9 -9 24q-14 14 -21 7l-10 -10q-10 -9 -27.5 -28t-38 -42t-46.5 -55.5t-49 -64.5q-63 -76 -109 -129.5t-129 -143t-155 -146t-124 -69.5q-74 -19 -95 24q-14 31 -10 78q8 102 86 228q20 34 30 50q48 79 69 115t42 85
t21 79q1 102 -149 111.5t-312 -61t-190 -167.5q-4 -12 12 -24q16 -14 20 -3z" />
    <glyph glyph-name="V" unicode="V" horiz-adv-x="623" 
d="M-317 600q39 82 151 149.5t229 89.5q29 9 91 8t83 -25t2 -84q-19 -58 -81 -224q-47 -127 -71 -193.5t-46 -152t-16 -124.5q9 -70 68 -63q2 1 6.5 2t6.5 1q62 20 185 125t226 240q117 154 182.5 321t47.5 300q-5 30 -13 56q-5 14 -20 22q-7 2 -10 -1t-1 -10q8 -27 11 -49
q17 -125 -52.5 -283.5t-191.5 -317.5q-106 -139 -219 -244.5t-170 -124.5q-8 -2 -11 -2q-12 -1 -13 10q-5 36 17.5 119.5t45.5 149.5t70 191q60 162 81 225q24 75 -18 124q-35 40 -99.5 53t-122.5 2q-116 -23 -229 -95t-153 -158q-2 -5 2.5 -16t11.5 -17q16 -15 20 -4z" />
    <glyph glyph-name="W" unicode="W" horiz-adv-x="905" 
d="M-161 547q14 54 56.5 104.5t93.5 74.5q75 36 116 -1q8 -7 11 -22t-1 -41t-7.5 -46.5t-15.5 -60.5l-18 -60t-21 -66q-20 -63 -28.5 -92.5t-17 -74t-3 -70.5t24.5 -40q63 -48 243 197q-24 -76 -40.5 -146.5t-27 -147.5t2 -131.5t48.5 -72.5q23 -12 48 -9q74 8 178 142
q68 89 141 223q49 -31 97.5 -30.5t98.5 25.5q68 35 121 99q6 8 -9 23q-15 16 -21 8q-14 -16 -47.5 -41.5t-71.5 -45.5q-100 -50 -157 -18q4 7 16 30.5t18 36.5q103 208 166 414.5t51 313.5q-9 66 -42 88q-30 19 -67 -18q-31 -33 -67 -98q-79 -145 -133 -344.5t-29 -311.5
q15 -61 42 -97l3 -4q-67 -126 -140 -222q-100 -129 -170 -138q-17 -3 -33 4q-15 7 -21.5 28.5t-6 51.5t6 68.5t15 79.5t21.5 84t24.5 82.5t24.5 75t21 61.5t15 42l6 16q4 11 -10 23q-6 7 -12.5 8.5t-8.5 -2.5l-7 -11q-7 -10 -18 -27.5t-27 -40.5t-33.5 -48t-37.5 -51.5
t-39.5 -50.5t-39 -44t-36 -33t-30 -18t-22.5 2q-16 12 51 221q1 3 1 4q22 71 32.5 107.5t21 91.5t4 90t-29.5 55q-34 30 -76.5 37t-82.5 -12q-50 -24 -91 -81.5t-56 -116.5q-4 -11 13 -24q15 -13 19 -2zM603 258q-15 25 -24 65q-25 108 28.5 303.5t131.5 338.5q38 68 65 95
q29 29 38 22q5 -2 9 -41q12 -104 -51 -308.5t-165 -409.5q-13 -30 -32 -65z" />
    <glyph glyph-name="X" unicode="X" horiz-adv-x="567" 
d="M865 653l3 4q76 98 35 92q-16 -2 -50 -20q-251 -138 -503 -307q15 96 37 200t36.5 160.5t15.5 57.5q2 11 -14 25q-15 14 -19 1l-4 -14q-3 -13 -9 -38t-13.5 -58t-16.5 -75.5t-18 -87t-17.5 -96.5t-14.5 -100q-154 -103 -301 -219q-344 -269 -487 -494q-6 -10 10 -24
q15 -15 21 -6q141 222 484 492q133 103 266 195q-33 -315 44 -401q33 -39 79.5 -55t93.5 -11t96 20.5t91.5 39t75.5 45.5t51.5 39t16.5 20q9 5 -6 22t-22 10q-4 -4 -36.5 -26.5t-91 -54.5t-118 -55.5t-120 -21.5t-94.5 41q-71 79 -24 412q245 166 494 306q6 -9 7 -10
q15 -15 22 -8z" />
    <glyph glyph-name="Y" unicode="Y" horiz-adv-x="884" 
d="M-185 609q48 69 146 119t202 70.5t194 13.5q64 -5 76 -18v-1l-1 -1q-3 -38 -98 -187q-40 -62 -60.5 -96.5t-42.5 -82t-24 -77.5q-5 -84 89 -90q43 -2 99.5 24.5t127.5 84t113.5 96t115.5 108.5q84 80 102 95q-13 -37 -43 -107q-41 -95 -83 -179q-174 -72 -331 -168
t-255 -195q-24 -25 -46.5 -54t-43.5 -67t-32.5 -74t-8.5 -75.5t24 -70.5q27 -40 80 -63l1 -1q2 -1 6.5 -2t6.5 -2q152 -48 394 319q122 187 235 421q67 26 92 34q11 4 -2 21t-23 13q-9 -3 -41 -14q37 78 58 129q38 85 53 133q14 44 -23 56q-7 2 -19.5 -4.5t-36 -27
t-40.5 -36t-53 -50.5q-166 -158 -238 -215q-139 -109 -213 -105q-34 2 -32 43q2 28 24.5 75.5t40 77t59.5 96.5q33 52 50 79t33.5 61t17.5 54q1 19 -17 39q-30 33 -110 38q-88 7 -200.5 -13t-219.5 -69t-153 -115q-6 -10 10 -24q6 -6 21.5 -13t18.5 -3zM885 687l3 -1
q-1 0 -5 1q2 2 2 0zM492 -42q-236 -360 -376 -316l-9 3l-1 1q-34 15 -48 35q-14 21 -14.5 47.5t11 55t26.5 56t37 55.5t38 47t33 36q93 95 228 186.5t283 158.5q-103 -206 -208 -365z" />
    <glyph glyph-name="Z" unicode="Z" horiz-adv-x="786" 
d="M93 796q130 -1 366 12q150 12 252.5 9.5t119.5 -30.5q35 -56 -392 -423l-277 -10q-10 -2 2 -18q17 -17 28 -17l203 8q-41 -35 -85.5 -72t-82 -68.5t-73.5 -60.5t-64 -51.5t-49.5 -39.5t-32.5 -26l-12 -9q-6 -6 11 -23q15 -13 23 -11q44 4 130.5 11t274.5 15t344 5
t292 -28.5t165 -75.5q9 -16 26 -22q7 -2 9.5 0.5t-1.5 9.5q-26 46 -105.5 77.5t-194 45.5t-233 20t-254.5 2.5t-225 -8t-175 -10.5q182 143 387 321l192 13q10 0 1 12l-4 5q-15 19 -27 17l-120 -9q391 346 352 410q-15 26 -46.5 42t-63.5 23.5t-93.5 8.5t-103.5 -1t-128 -7
q-250 -14 -365 -12q-3 0 -4.5 -2.5t0 -6.5t5.5 -8q14 -18 28 -18z" />
    <glyph glyph-name="bracketleft" unicode="[" horiz-adv-x="339" 
d="M344 561h-89q-5 0 -5 -3l-231 -413q-5 -9 10 -24q10 -8 17 -8l81 4q13 2 2 18q-10 17 -23 17l-37 -2l210 376h86q13 0 2 18q-11 17 -23 17z" />
    <glyph glyph-name="backslash" unicode="\" horiz-adv-x="355" 
d="M16 591l239 -483q10 -17 22 -19q6 -1 7.5 3.5t-2.5 12.5l-239 483q-8 17 -22 19q-14 0 -5 -16z" />
    <glyph glyph-name="bracketright" unicode="]" horiz-adv-x="363" 
d="M-57 105h89q5 0 5 3l231 413q5 8 -10 23q-10 10 -17 8l-81 -4q-13 0 -2 -18q12 -18 23 -16l37 2l-210 -377h-86q-12 0 -2 -17t23 -17z" />
    <glyph glyph-name="asciicircum" unicode="^" horiz-adv-x="318" 
d="M47 509l144 151l27 -114q4 -15 19 -23q7 -3 11 -0.5t2 8.5l-38 159q-2 8 -9 15q-14 16 -22 8l-163 -173q-8 -8 8 -23q15 -15 21 -8z" />
    <glyph glyph-name="underscore" unicode="_" horiz-adv-x="371" 
d="M45 117h210q12 0 3 18q-11 17 -23 17h-211q-13 0 -2 -17q9 -18 23 -18z" />
    <glyph glyph-name="grave" unicode="`" horiz-adv-x="180" 
d="M65 680q1 -3 1 -9q0 -20 -15 -38q-6 -8 8 -24q15 -15 22 -7q18 21 18 48q0 10 -4 22q-5 15 -15 24l-3 3q-10 8 -18 8q-12 0 -2 -17q2 -4 8 -10z" />
    <glyph glyph-name="a" unicode="a" horiz-adv-x="261" 
d="M165 326q-12 41 -61.5 45t-82.5 -26q-40 -32 -62 -80q-10 -21 -11 -38q-3 -23 12 -42q12 -12 20 -15q25 -11 95 55q-1 -36 22 -47t58 8q27 14 132 108q8 8 -3 21q-10 9 -20 -1l-7 -5q-126 -102 -129 -81q-5 25 8 59q5 8 -8 22q-15 15 -22 8q-91 -106 -126 -116
q17 70 69 112q17 14 42.5 22t44.5 -3q7 -16 22 -20q6 -2 8 2t-1 12z" />
    <glyph glyph-name="b" unicode="b" horiz-adv-x="257" 
d="M217 677l-327 -529q-6 -10 10 -24q14 -14 20 -7l10 11q11 12 32.5 35t42.5 44q21 -70 95 -52q31 7 59.5 45.5t41.5 81.5q7 27 6 41q0 28 -22 46l-1 1q-18 14 -45 2q-40 -18 -115 -87l224 362q5 9 -10 24q-16 14 -21 6zM166 339q2 1 5 2t4 2q-2 -19 -7 -34
q-11 -40 -37.5 -76.5t-54.5 -43.5q-19 -5 -30 5t-13 19.5t-2 19.5q88 85 135 106zM181 345v-1v0h-2z" />
    <glyph glyph-name="c" unicode="c" horiz-adv-x="249" 
d="M136 285q2 4 4.5 10.5t6 23t1.5 29t-14.5 23.5t-36.5 12q-17 1 -46.5 -18t-54.5 -47q-21 -25 -31 -43q-13 -24 -13 -46q-2 -35 30 -64q11 -10 27.5 -11.5t35.5 3.5t40.5 14t42.5 21.5t41 25.5t37.5 26t31 23t20.5 17l8 6q7 7 -7 23q-4 1 -11.5 -5t-8.5 -6l-12 -8
q-12 -9 -30.5 -21.5t-42.5 -28t-48 -29t-47.5 -23.5t-40.5 -12t-27 5q-7 7 -7 22q2 20 12 39q13 22 30 41q23 26 50 44t41 17q2 0 -1 -9t-7 -17.5t-5 -8.5q-4 -10 12 -24q15 -15 20 -4z" />
    <glyph glyph-name="d" unicode="d" horiz-adv-x="311" 
d="M147 267v1q0 1 0.5 2.5t0.5 4v4.5q25 23 57 56q-263 -434 -249 -467q5 -17 21 -21q6 -2 8.5 2t-0.5 11q-15 34 455 772l24 37q5 9 -10 24t-21 6l-21 -32q-66 -103 -165 -221q-56 -67 -111 -119q-7 11 -11.5 16.5t-18 11.5t-31.5 6q-51 2 -105 -86q-17 -30 -19 -53
q-1 -27 14 -38t35.5 -7.5t38.5 14.5q37 23 93 72l1 2q12 -7 14 2zM114 306l-11 -11q-55 -49 -92 -71q-15 -9 -26 -15q3 14 16 37q17 28 43 52t50 23q16 0 20 -15z" />
    <glyph glyph-name="e" unicode="e" horiz-adv-x="241" 
d="M37 315q22 26 61 55q22 16 39 24q-1 -2 -2.5 -5.5t-2.5 -5.5q-21 -36 -50 -51q-27 -12 -45 -17zM108 299q35 18 55 55q9 18 10 28q3 19 -12 36q-11 12 -24 15q-19 3 -67 -30q-34 -24 -65 -59q-33 -38 -40 -74q-6 -29 7.5 -56.5t39.5 -41.5q47 -26 137 23.5t116 94.5
q4 9 -5 18q-7 5 -13 2.5t-9 -7.5q-17 -31 -96 -70q-96 -46 -133 -28q-28 13 -4 64q4 0 17.5 2t39 9.5t46.5 18.5z" />
    <glyph glyph-name="f" unicode="f" horiz-adv-x="193" 
d="M105 470l-1 -1q-103 -147 -141 -203l-6 2h-1q-6 2 -8.5 -1.5t-0.5 -10.5q1 -3 2 -10q-70 -103 -113 -175q-27 -46 -40 -72q-21 -45 12 -61l2 -1q2 -1 5 -1l1 -1q18 -2 45 11.5t51 38.5q44 45 57 108q17 76 13 127l7 9q114 -23 225 59q9 5 -6 22q-2 3 -5 3.5t-4 0t-4 -3.5
l-3 -2q-33 -24 -72 -36t-58.5 -13t-52.5 0q102 148 125 180q42 58 67 97q66 81 73 108q7 26 -22 35h-1q-8 2 -9 -4q-8 -9 -28 -41q-6 -10 -21.5 -34.5t-21.5 -33.5l-8 -8q-48 -61 -64 -61q-13 -2 -2 -18q4 -7 8 -9zM-54 165q-3 -18 -9 -47q-13 -58 -54 -102q-26 -26 -51 -37
q15 30 35 62q40 66 79 124z" />
    <glyph glyph-name="g" unicode="g" horiz-adv-x="251" 
d="M524 112q-261 23 -438 3q27 48 55 99t42.5 78.5t14.5 28.5l1 1l11 19q4 10 -11 24q-15 13 -20 5q-15 -20 -37 -46q-34 37 -73.5 29.5t-72.5 -41t-40 -69.5q-5 -24 3 -37t34 -19q17 -4 55.5 14.5t61.5 42.5q-67 -119 -76 -135q-144 -22 -213 -71q-38 -26 -49 -59
q-10 -32 8 -65q34 -59 106 -61q44 0 176 222q189 27 481 2q13 0 4 16q-9 17 -23 19zM9 66q-108 -178 -144 -178q-44 2 -59 25q-9 17 -2 39q10 29 45 53q52 38 160 61zM128 307q-18 -37 -61.5 -69t-65.5 -30q-24 1 0 40q28 43 70 64q38 19 57 -5z" />
    <glyph glyph-name="h" unicode="h" horiz-adv-x="278" 
d="M221 681l-305 -495q-6 -10 10 -24q14 -14 20 -7l2 2q157 174 161 153q1 -7 1 -35t3.5 -44.5t14.5 -28.5q18 -18 57.5 2.5t112.5 88.5q7 7 -4 20q-6 7 -18 -5q-40 -37 -69.5 -58.5t-40.5 -25.5t-14 -1q-1 65 -2 74q-8 83 -117 -1l219 355q6 10 -10 24q-15 15 -21 6z" />
    <glyph glyph-name="i" unicode="i" horiz-adv-x="165" 
d="M64 387q-47 -39 -82 -107q-29 -59 -10 -93q9 -15 25 -17.5t35 5.5t40 21.5t40.5 30.5t35 31t24.5 24l10 10q8 8 -1 16q-8 8 -19 -3q0 -2 -29 -28t-67 -52t-56 -23q-17 9 3 49q33 64 80 104q8 7 -6 23t-23 9zM126 416l56 64q5 9 -8 24q-16 14 -22 7l-56 -64q-6 -8 8 -24
q15 -15 22 -7z" />
    <glyph glyph-name="j" unicode="j" horiz-adv-x="151" 
d="M21 355q-66 -125 -138 -246q-144 -21 -215 -71q-38 -26 -49 -59q-10 -32 8 -65q34 -59 106 -61q42 0 178 222q189 27 479 2q13 0 4 16q-9 17 -23 19q-255 22 -436 4q28 48 57.5 100.5t44.5 81.5l15 28q5 9 -10 24q-16 14 -21 5zM-288 -112q-44 2 -59 25q-9 17 -2 39
q10 29 45 53q55 40 161 61q-109 -178 -145 -178zM77 416l37 65q5 9 -10 24q-16 14 -21 5l-37 -64q-6 -10 10 -24q15 -15 21 -6z" />
    <glyph glyph-name="k" unicode="k" horiz-adv-x="310" 
d="M230 697l-346 -540l-2 -3q-6 -9 10 -23q14 -16 21 -7q0 1 14.5 22t46 60t64.5 74q0 -90 58 -116q19 -8 51 3t60.5 30t60.5 45t44.5 38t18.5 18t-4 18q-8 8 -24 -8l-9 -8q-10 -7 -24.5 -18.5t-34 -25t-40 -26.5t-41 -22.5t-37.5 -13t-29 1.5q-33 14 -10 123q88 79 162 107
q10 4 -3 21q-13 16 -23 13q-68 -25 -144 -91l191 298q6 9 -9 24q-16 14 -22 6z" />
    <glyph glyph-name="l" unicode="l" horiz-adv-x="278" 
d="M281 305q-18 -30 -125 -116t-153 -110q-13 -7 -31.5 -11t-30.5 3q-20 44 111 272h4l2 2q203 157 293 273q24 32 37 57q25 47 18 73q-8 24 -34 32q-13 5 -32 0q-24 -7 -53 -30t-52 -56q-5 -1 -64.5 -88.5t-128.5 -197.5t-115.5 -214.5t-26.5 -133.5q12 -19 35 -22.5
t44 2.5t42 17q45 23 156 113.5t129 121.5q4 6 -11 16q-8 6 -14 -3zM263 673q48 68 101 84q10 2 13 2q5 -21 -17 -64q-49 -98 -259 -272q36 59 76.5 121.5t62.5 95.5z" />
    <glyph glyph-name="m" unicode="m" horiz-adv-x="339" 
d="M32 391l-111 -199q-5 -9 10 -24q15 -13 20 -6l2 2q146 176 197 194q1 0 -13.5 -32t-29.5 -65l-15 -33q-4 -10 11 -24q16 -14 21 -4v1q5 9 27 27t42 28l4 2q-1 -2 -2 -5.5t-1 -5.5q-33 -90 8 -80q40 10 157 127q8 8 -4 18q-7 8 -21 -6l-12 -9q-11 -9 -27 -22t-31.5 -26
t-26.5 -22t-11 -8q11 33 3 51q-13 28 -38 26q-8 0 -24 -7q-5 -2 -10 -5q8 25 12 45.5t3 39.5t-13 23.5t-34 -0.5q-26 -9 -80 -62l18 31q5 10 -11 24q-16 16 -20 6z" />
    <glyph glyph-name="n" unicode="n" horiz-adv-x="299" 
d="M29 365l-90 -161q-5 -8 10 -24q15 -13 20 -6q9 9 39.5 37t80 69.5t74.5 54.5q-3 -8 -11 -24q-13 -27 -18.5 -41.5t-2 -36t24.5 -34.5q16 -9 36.5 -3t42.5 22t40 33t30 30l12 13q6 8 5 10t-4 5q-9 10 -22 -8l-6 -5q-7 -5 -17 -13t-23 -17.5t-26.5 -18t-27 -15t-24 -8
t-17.5 2.5q15 29 28 55q15 33 17 39q12 41 -28 53h-2q-27 7 -135 -83l25 45q6 10 -10 24q-15 15 -21 5z" />
    <glyph glyph-name="o" unicode="o" horiz-adv-x="231" 
d="M34 358q-2 -1 -5 -3.5t-4 -3.5q-33 -30 -52 -86q-19 -61 4 -95l6 -6q8 -9 20 -16q19 -10 39 -4q13 4 34 21q22 19 41 56q12 20 19 50q48 -17 113 19q9 6 -1 19q-7 8 -18 2q-38 -22 -90 -12q3 23 0 43q-3 22 -11 36q-11 23 -31 34q-13 6 -25 5q-17 -3 -20 -26
q-2 -23 10 -49q13 -29 39 -51q-7 -24 -16 -41q-18 -35 -39 -53q-13 -13 -30 -19q-12 -3 -19 0q-7 14 7 60q19 54 49 81q2 2 8 6q8 8 -6 23q-14 16 -22 10zM107 315q-11 9 -15 21q-8 17 -6 31q2 15 10 15q5 2 7 0h-1q4 -9 5 -22q3 -20 0 -45zM103 382z" />
    <glyph glyph-name="p" unicode="p" horiz-adv-x="269" 
d="M-125 -21l243 470q2 3 -7.5 10t-19.5 10t-14 0q-19 -31 -121.5 -233.5t-108.5 -235.5q-10 -56 7 -90q8 -17 20 -10q14 8 23 42l8 14q99 181 141 250q26 -38 65 -38q20 0 50 34t45 74q11 28 12 56.5t-16.5 48t-49.5 15.5q-24 -3 -62.5 -52t-65 -95.5t-64.5 -118.5
q-5 -9 -13.5 -24t-10.5 -19q-27 -52 -61 -108zM175 361q2 1 0 7l1 1q4 -5 2 -22q-2 -13 -13 -40q-15 -39 -37.5 -71.5t-36.5 -32.5q-19 0 -32 25q81 129 116 133z" />
    <glyph glyph-name="q" unicode="q" horiz-adv-x="287" 
d="M160 331q-106 -93 -155 -96q1 1 1 4q3 15 14 33q20 36 52 67.5t59 38.5t29 -47zM107 412q-29 -8 -63 -40.5t-55 -69.5q-13 -25 -15 -38q-5 -24 9 -42q15 -21 41 -21q36 0 102 48l-260 -367q-5 -8 9 -24q16 -14 22 -6l417 442q6 8 -4 19q-7 7 -23 -9l-223 -216l203 286
q5 8 -8 23q-16 14 -22 8q-20 -21 -49 -48q-16 72 -81 55z" />
    <glyph glyph-name="r" unicode="r" horiz-adv-x="253" 
d="M60 415l-143 -231q-6 -10 10 -24q15 -15 21 -6q53 95 59 98l49 39q46 33 55 22q17 -20 27 -27t29 -8q33 -3 98 17q11 2 3 14q-4 7 -18 2q-43 -13 -74 -11q-7 1 -11.5 15.5t-7.5 18.5q-24 30 -103 -8l37 59q6 10 -10 24q-15 15 -21 6z" />
    <glyph glyph-name="s" unicode="s" horiz-adv-x="160" 
d="M2 275l41 47q-8 -15 -12 -26t-4.5 -14.5t0.5 -9t1 -8.5q7 -31 -5 -55q-5 -11 -15 -18q-9 -7 -20 -9q-13 -3 -20 0q-1 0 2 6.5t6 13.5l4 7q4 10 -11 24q-16 14 -21 5l-1 -2q-1 -2 -2.5 -5.5t-2.5 -8.5t-1.5 -10.5t-0.5 -12t2 -12.5t5.5 -12.5t10.5 -12t16 -10.5
q18 -10 39 -5q12 3 23 11q13 11 19 22q13 28 5 69q-13 55 38 113l24 23q8 7 -8 23q-13 17 -21 9q-10 -8 -23 -22l-75 -91q-24 -24 -17 -31q11 -11 24 2z" />
    <glyph glyph-name="t" unicode="t" horiz-adv-x="206" 
d="M280 757q-1 -1 -24 -33.5t-65.5 -95t-79.5 -120.5h-338q-13 0 -2 -17q9 -18 23 -18h9h23.5t34 -0.5t39.5 -2t43 -4.5t40 -8t34 -12t22.5 -17t8.5 -22l-6 -11q-116 -192 -95 -230q12 -21 37 -21.5t57 17t62 37.5t60 46.5t43 38.5t18 17q10 8 2 17q-9 10 -18 4
q0 -2 -51.5 -40.5t-106.5 -71t-63 -17.5q-8 14 11.5 53t71.5 123q4 0 4 6v1q33 53 62 97h299q13 0 2 18q-9 17 -23 17h-255q34 51 72 106t59 84l20 29q6 8 -9 23q-14 16 -21 7zM59 425q-16 22 -95 53l125 -5z" />
    <glyph glyph-name="u" unicode="u" horiz-adv-x="275" 
d="M55 395q-52 -57 -77 -111q-25 -60 -14 -86.5t50.5 -17.5t88.5 51q4 -31 31.5 -39.5t53.5 5.5q43 20 105 101q9 10 1 18q-3 3 -5 3.5t-4 -0.5t-3 -2t-2.5 -3.5t-2.5 -3.5q-44 -57 -111 -90q-39 -19 -32 10q9 31 45 76l7 7q8 7 -8 23q-14 16 -22 8l-3 -4
q-25 -42 -57.5 -75.5t-56 -46.5t-29.5 -8q-1 3 -2 9.5t3.5 21.5t12 32t23.5 41t38 49q5 9 -8 24q-15 15 -22 8z" />
    <glyph glyph-name="v" unicode="v" horiz-adv-x="247" 
d="M-7 296q-53 -82 -47 -108q1 -10 9 -19q17 -20 43 -12q15 6 38 23q44 30 102 93l1 -2q8 -17 24.5 -21.5t33 2t32.5 15.5t26 17l10 9q7 7 -4 19q-6 7 -24 -6q-14 -12 -30.5 -19.5t-25.5 -9.5t-9 -1q0 6 4 15.5t10 19t12 18t10 14.5l4 6q3 3 -2.5 13.5t-12.5 16.5
q-11 12 -17 4l-6 -9q-95 -127 -169 -180q-14 -14 -19 -8q-1 2 1 8q9 22 31 57.5t38.5 59.5t18.5 26q5 7 -7 21q-6 7 -16.5 12t-13.5 2l-53 -52q-8 -6 6 -22z" />
    <glyph glyph-name="w" unicode="w" horiz-adv-x="386" 
d="M-4 300q-57 -103 -7 -135q38 -26 104 56q5 -31 27 -46q41 -27 92 27q22 23 50 64q8 -10 19 -18q52 -31 120 45q2 1 2.5 2t1.5 2l2 2q7 7 -2 17t-17 2q-18 -18 -55 -35t-54 -6q-3 2 0 14q10 15 49 76v1q6 10 -10 24q-14 14 -21 6q-13 -17 -25 -40q-58 -92 -90 -125
q-41 -44 -61 -31q-8 6 0 32.5t21 50.5l12 24q5 9 -10 24q-16 14 -21 5l-1 -2q-70 -111 -103 -136q-20 -14 -31 -7t14 48.5t54.5 80t30.5 38.5q6 8 -9 23q-15 16 -21 8q-12 -11 -64 -75q-6 -6 3 -16z" />
    <glyph glyph-name="x" unicode="x" horiz-adv-x="256" 
d="M201 402l-15 -12q-15 -11 -45.5 -35t-58.5 -48q15 36 -14 50q-7 3 -27.5 -5.5t-37.5 -18.5l-17 -10q-9 -5 4 -22q14 -16 23 -11q11 7 24 15q-15 -37 -20 -56q-151 -137 -167 -205q-2 -11 14 -25q15 -12 19 -1q13 58 130 169q3 -16 16 -29l5 -5q79 -63 236 134q5 5 7 8
q5 8 -3 16q-9 9 -16 0q-26 -33 -110 -93t-108 -42q-7 8 5 41q40 36 86 74t72 58l26 20q8 6 -5 23q-14 16 -23 10z" />
    <glyph glyph-name="y" unicode="y" horiz-adv-x="244" 
d="M529 112q-261 23 -438 3q27 48 55 99t42.5 78.5t14.5 28.5l1 1l22 39q5 8 -10 23q-15 13 -21 6v1q5 -4 -25.5 -46.5t-76.5 -82t-77 -32.5q-4 3 -4 14.5t2 15.5q20 49 70 106q6 8 -8 24q-15 15 -22 7q-52 -61 -71 -109q-11 -26 -10 -43q0 -32 31 -49q10 -6 23 -7
q28 -3 84 46q-35 -64 -72 -126q-144 -22 -213 -71q-38 -26 -49 -59q-10 -32 8 -65q34 -59 106 -61q44 0 176 222q189 27 481 2q13 0 4 16q-9 17 -23 19zM14 66q-108 -178 -144 -178q-44 2 -59 25q-9 17 -2 39q10 29 45 53q52 38 160 61z" />
    <glyph glyph-name="z" unicode="z" horiz-adv-x="199" 
d="M7 284l7 5q6 5 16.5 13t22.5 16.5t27 16t27 10.5q0 -2 -1 -6q-2 -2 -2 -4q-26 -55 -121 -94q-7 -3 -2 -14q6 -19 7 -23q-135 -59 -165 -122q-12 -26 -5 -46q9 -25 33 -36q12 -7 32 -5q47 4 93 50q52 51 46 126q14 0 35.5 6.5t51 20t61 42t53.5 66.5q2 3 -2 5q-1 2 -3 3
t-4 3q-8 8 -14 -3q-55 -94 -185 -107l-1 2q96 41 121 98q8 14 6 26q0 19 -16 35q-17 17 -37 12q-21 -4 -48.5 -20t-43.5 -30l-17 -14q-8 -7 6 -23q15 -15 22 -9zM-53 76q-45 -44 -86 -47q-9 0 -13 1q0 9 7 23q23 51 134 106q-5 -46 -42 -83z" />
    <glyph glyph-name="braceleft" unicode="{" horiz-adv-x="310" 
d="M418 664q-4 2 -10.5 5.5t-26.5 5.5t-39.5 -5t-45.5 -33.5t-48 -71.5q-57 -118 -96 -159q-34 -37 -81 -48q-27 -3 -30 -6q-11 -2 -2 -19q11 -17 22 -15l21 3q18 1 26 -6t0 -35l-32 -68q-10 -21 -13.5 -29.5t-9 -22.5t-7 -21.5t-1.5 -16.5t3 -18q18 -52 81 -37h1q11 4 0 20
q-12 17 -22 14l-31 -4q0 11 -1.5 13.5t4.5 17.5t10.5 24t15.5 32q4 9 14.5 31.5t16.5 37.5q29 63 4 90q23 16 38 32q38 40 98 162q20 41 41.5 66t38.5 32t31 7.5t21.5 -3t7.5 -4.5q14 -9 16 4q0 14 -15 25z" />
    <glyph glyph-name="bar" unicode="|" 
 />
    <glyph glyph-name="braceright" unicode="}" horiz-adv-x="363" 
d="M-84 73q4 -3 11 -6t27 -5t39 5t42.5 33t41.5 71l11 28q38 98 59 121.5t85 32.5q11 2 1 19q-11 16 -23 16h-4.5t-9 3.5t-10 10t-3.5 20.5t7 34q1 2 25 68q13 33 17 46t6.5 33.5t-5.5 28.5q-22 52 -84 37h-1q-11 -2 2 -20q12 -16 23 -14l31 4q7 -15 -21 -87
q-23 -63 -25 -68q-24 -69 6 -105q-38 -10 -55.5 -37t-52.5 -115l-11 -28q-16 -41 -35.5 -66t-36 -31.5t-30 -7.5t-21.5 3l-8 4q-7 4 -11.5 3t-3.5 -7q0 -15 17 -24z" />
    <glyph glyph-name="exclamdown" unicode="&#xa1;" horiz-adv-x="453" 
d="M99 177l216 418q6 9 -11 24q-14 14 -20 5l-216 -418q-5 -9 10 -24q16 -14 21 -5zM326 647q10 0 17 7.5t7 17.5t-7 17t-17 7t-17 -7t-7 -17t7 -17.5t17 -7.5z" />
    <glyph glyph-name="cent" unicode="&#xa2;" 
 />
    <glyph glyph-name="sterling" unicode="&#xa3;" horiz-adv-x="636" 
d="M44 403q-4 0 -1 -5q1 -5 9 -13q8 -7 15 -12q6 -5 12 -5h111q-2 -72 -10 -131q-11 -70 -47 -119q-37 -52 -120 -81h-1q-3 -1 0 -7q3 -5 11 -12q7 -9 15 -12q7 -4 10 -3q4 0 65 12q52 9 143 19q78 8 154 2q69 -7 92 -41q3 -7 11 -13q7 -8 15 -12q12 -6 12 -2l-1 5
q-30 49 -96 70q-64 20 -145 22q-79 1 -149 -6q54 54 67 128q14 78 14 162v19h180q3 0 2 5q-2 5 -9 12q-5 5 -15 13q-8 5 -12 5h-144q3 55 10 99q11 78 50 145q48 72 99 99q49 26 97 23q26 -3 52 -13q16 -8 20 -12q12 -12 6 -26q-2 -3 3 -9q5 -7 13 -13q7 -7 15 -10q6 -3 8 0
q9 23 -27 59q-24 24 -62 43q-32 13 -62 16q-48 3 -99 -23q-53 -27 -101 -101q-42 -72 -52 -146q-10 -70 -11 -131h-147z" />
    <glyph glyph-name="yen" unicode="&#xa5;" horiz-adv-x="596" 
d="M201 844q-236 -360 -113 -442q31 -21 92 -18q3 0 7 0.5t5 0.5q20 0 49 16q-22 -40 -40 -89h-187q-9 0 7 -18q17 -17 27 -17h142q-9 -36 -11 -46q-1 -6 -2.5 -15.5t-1.5 -14.5h-161q-10 0 7 -17q18 -18 27 -18h121q-27 -196 19 -201q9 0 14 5q5 3 -13 21q-20 16 -25 13
q21 13 49 162h167q7 2 -8 18q-17 17 -27 17h-126q6 31 20 76h141q9 0 -8 17q-16 18 -27 18h-92q37 89 115 200q81 86 191 227q1 1 -0.5 4.5t-5.5 8t-9 8.5q-19 17 -23 12q-1 0 -28 -28t-74.5 -84t-88.5 -114q-26 -28 -50 -50q-82 -76 -122 -76q-9 0 -13 -1q-51 -2 -67 8
q-63 42 162 384q4 6 -16 22q-19 17 -23 11z" />
    <glyph glyph-name="copyright" unicode="&#xa9;" horiz-adv-x="539" 
d="M232 759q-81 0 -138 -55t-57 -134q0 -81 63 -142q67 -65 152 -65q82 0 138 56q57 55 57 133q0 82 -63 142q-65 65 -152 65zM373 694q50 -48 50 -124q0 -78 -56 -132q-57 -55 -135 -55q-75 0 -121 46q-51 49 -51 123q0 78 57 132q55 55 135 55q74 0 121 -45zM291 575
q2 4 4.5 10.5t6 23t1.5 29t-14.5 23.5t-36.5 12q-16 1 -45.5 -18t-55.5 -47q-22 -25 -30 -43q-14 -26 -14 -46q-2 -35 30 -64q11 -10 27.5 -11.5t35.5 3.5t40.5 14t42.5 21.5t41 25.5t37.5 26t31 23t21.5 17l7 6q7 7 -7 23q-4 1 -11 -5t-9 -6l-7.5 -5t-19 -14t-28.5 -20
t-34.5 -22t-37.5 -22t-38 -20t-34.5 -14.5t-28.5 -5.5t-19 6q-7 6 -7 22q0 17 12 39q10 21 29 41q23 26 50 44t41 17q2 0 -1 -8.5t-7 -17.5l-4 -9q-5 -10 11 -24q16 -15 20 -4z" />
    <glyph glyph-name="registered" unicode="&#xae;" horiz-adv-x="539" 
d="M232 759q-81 0 -138 -55t-57 -134q0 -81 63 -142q67 -65 152 -65q82 0 138 56q57 55 57 133q0 82 -63 142q-65 65 -152 65zM245 597l21 34l-22 19l-88 -138l23 -19l33 52l1 -1l71 52q23 -27 49 -30q17 -1 45 8l-22 20q-28 -8 -42 -7q-10 0 -13 4q-18 21 -56 6zM373 694
q50 -48 50 -124q0 -78 -56 -132q-57 -55 -135 -55q-75 0 -121 46q-51 49 -51 123q0 78 57 132q55 55 135 55q74 0 121 -45z" />
    <glyph glyph-name="questiondown" unicode="&#xbf;" horiz-adv-x="326" 
d="M288 271q-1 -3 -2.5 -8t-9 -18t-18.5 -23.5t-31.5 -20t-45.5 -12.5q-29 -2 -43 8q-6 3 -9 13q-5 19 1 44q15 55 77 104l20 16q92 75 122.5 112t35.5 97q0 14 -15 24q-16 11 -18 -1q-3 -39 -21.5 -70.5t-43.5 -54.5t-89 -74l-19 -16q-66 -55 -81 -111q-8 -31 0 -57
q9 -34 41 -54q28 -18 64 -14q44 4 73 26.5t36 42.5l8 21q2 12 -13 25q-17 13 -19 1zM377 628q10 0 17 7t7 17t-7 17t-17 7t-17.5 -7t-7.5 -17t7.5 -17t17.5 -7z" />
    <glyph glyph-name="Agrave" unicode="&#xc0;" horiz-adv-x="1239" 
d="M129 -64q-1 0 -19 -17.5t-35 -40.5t-14 -35q9 -36 39 -28q71 18 571 528q147 8 373 29q-62 -130 -164 -311q-70 -126 -66 -142q9 -32 33 -26q17 3 70 77q90 126 142 260q31 78 42 148q26 3 51.5 5.5t36.5 3.5l11 1q5 1 5 6.5t-5 12.5q-11 18 -23 16q-25 -3 -68 -7
q25 52 44 101q105 254 135 361q17 69 8.5 93.5t-40.5 21.5q-14 -1 -284 -280q-87 57 -222.5 57.5t-264 -37.5t-247.5 -100q-84 -43 -146 -92q-61 -50 -75 -86q-17 -40 20 -73q75 -66 570 -43q-319 -325 -448 -432q2 9 -8 20q-15 16 -22 9zM642 375q-529 -32 -597 28
q-5 5 3 24q14 34 73 82q63 50 144 91q82 43 173 75t184.5 50.5t182 12t150.5 -41.5l-40 -41q-166 -172 -273 -280zM944 623l47 49q55 -45 74 -116q14 -53 7 -124l-10 -21q-212 -22 -355 -31q27 28 237 243zM1278 958q2 0 -0.5 -4t-10 -18.5t-12.5 -31.5q-28 -104 -134 -359
q-7 -18 -17 -41q-4 26 -8 38q-23 88 -90 145q263 270 272 271zM1000 194q-33 -70 -70 -129q49 88 70 129zM1253 1093q-3 5 -6 12q-16 30 -16 46q0 11 -13 20q-5 4 -16.5 -2t-12.5 -11q0 -21 27 -60t54 -34q2 0 4 1q5 5 -5 19q-7 9 -16 9z" />
    <glyph glyph-name="Aacute" unicode="&#xc1;" horiz-adv-x="1239" 
d="M129 -64q-1 0 -19 -17.5t-35 -40.5t-14 -35q9 -36 39 -28q71 18 571 528q147 8 373 29q-62 -130 -164 -311q-70 -126 -66 -142q9 -32 33 -26q17 3 70 77q90 126 142 260q31 78 42 148q26 3 51.5 5.5t36.5 3.5l11 1q5 1 5 6.5t-5 12.5q-11 18 -23 16q-25 -3 -68 -7
q25 52 44 101q105 254 135 361q17 69 8.5 93.5t-40.5 21.5q-14 -1 -284 -280q-87 57 -222.5 57.5t-264 -37.5t-247.5 -100q-84 -43 -146 -92q-61 -50 -75 -86q-17 -40 20 -73q75 -66 570 -43q-319 -325 -448 -432q2 9 -8 20q-15 16 -22 9zM642 375q-529 -32 -597 28
q-5 5 3 24q14 34 73 82q63 50 144 91q82 43 173 75t184.5 50.5t182 12t150.5 -41.5l-40 -41q-166 -172 -273 -280zM944 623l47 49q55 -45 74 -116q14 -53 7 -124l-10 -21q-212 -22 -355 -31q27 28 237 243zM1278 958q2 0 -0.5 -4t-10 -18.5t-12.5 -31.5q-28 -104 -134 -359
q-7 -18 -17 -41q-4 26 -8 38q-23 88 -90 145q263 270 272 271zM1000 194q-33 -70 -70 -129q49 88 70 129zM1315 1100q1 1 4.5 4t5.5 5q22 23 28 40q2 11 18 16q6 2 15.5 -7t7.5 -14q-5 -19 -42 -49t-61 -19l-3 3q-6 7 10 16q10 7 17 5z" />
    <glyph glyph-name="Acircumflex" unicode="&#xc2;" horiz-adv-x="1239" 
d="M129 -64q-1 0 -19 -17.5t-35 -40.5t-14 -35q9 -36 39 -28q71 18 571 528q147 8 373 29q-62 -130 -164 -311q-70 -126 -66 -142q9 -32 33 -26q17 3 70 77q90 126 142 260q31 78 42 148q26 3 51.5 5.5t36.5 3.5l11 1q5 1 5 6.5t-5 12.5q-11 18 -23 16q-25 -3 -68 -7
q25 52 44 101q105 254 135 361q17 69 8.5 93.5t-40.5 21.5q-14 -1 -284 -280q-87 57 -222.5 57.5t-264 -37.5t-247.5 -100q-84 -43 -146 -92q-61 -50 -75 -86q-17 -40 20 -73q75 -66 570 -43q-319 -325 -448 -432q2 9 -8 20q-15 16 -22 9zM642 375q-529 -32 -597 28
q-5 5 3 24q14 34 73 82q63 50 144 91q82 43 173 75t184.5 50.5t182 12t150.5 -41.5l-40 -41q-166 -172 -273 -280zM944 623l47 49q55 -45 74 -116q14 -53 7 -124l-10 -21q-212 -22 -355 -31q27 28 237 243zM1278 958q2 0 -0.5 -4t-10 -18.5t-12.5 -31.5q-28 -104 -134 -359
q-7 -18 -17 -41q-4 26 -8 38q-23 88 -90 145q263 270 272 271zM1000 194q-33 -70 -70 -129q49 88 70 129zM1237 1083q5 6 39 30t63 38q8 4 18 8l-6 -51q0 -10 13 -21q13 -9 13 1q2 22 9 66q1 10 -5 20q-13 20 -35 15q-7 -1 -29 -11q-29 -15 -64.5 -39t-39.5 -31q-6 -6 7 -19
q12 -12 17 -6zM1362 1172l-1 1q1 0 1 -1z" />
    <glyph glyph-name="Atilde" unicode="&#xc3;" horiz-adv-x="1239" 
d="M129 -64q-1 0 -19 -17.5t-35 -40.5t-14 -35q9 -36 39 -28q71 18 571 528q147 8 373 29q-62 -130 -164 -311q-70 -126 -66 -142q9 -32 33 -26q17 3 70 77q90 126 142 260q31 78 42 148q26 3 51.5 5.5t36.5 3.5l11 1q5 1 5 6.5t-5 12.5q-11 18 -23 16q-25 -3 -68 -7
q25 52 44 101q105 254 135 361q17 69 8.5 93.5t-40.5 21.5q-14 -1 -284 -280q-87 57 -222.5 57.5t-264 -37.5t-247.5 -100q-84 -43 -146 -92q-61 -50 -75 -86q-17 -40 20 -73q75 -66 570 -43q-319 -325 -448 -432q2 9 -8 20q-15 16 -22 9zM642 375q-529 -32 -597 28
q-5 5 3 24q14 34 73 82q63 50 144 91q82 43 173 75t184.5 50.5t182 12t150.5 -41.5l-40 -41q-166 -172 -273 -280zM944 623l47 49q55 -45 74 -116q14 -53 7 -124l-10 -21q-212 -22 -355 -31q27 28 237 243zM1278 958q2 0 -0.5 -4t-10 -18.5t-12.5 -31.5q-28 -104 -134 -359
q-7 -18 -17 -41q-4 26 -8 38q-23 88 -90 145q263 270 272 271zM1000 194q-33 -70 -70 -129q49 88 70 129zM1226 1074q1 1 4 3.5t10.5 7.5t15.5 7.5t18 1.5t19 -7q38 -27 66 -26q25 3 44 28q6 9 -10 25q-14 17 -22 9q-17 -23 -36 -24q-18 -2 -41 16q-28 17 -50 15.5
t-36 -11.5l-13 -10q-8 -8 8 -25t23 -10z" />
    <glyph glyph-name="Adieresis" unicode="&#xc4;" horiz-adv-x="1239" 
d="M129 -64q-1 0 -19 -17.5t-35 -40.5t-14 -35q9 -36 39 -28q71 18 571 528q147 8 373 29q-62 -130 -164 -311q-70 -126 -66 -142q9 -32 33 -26q17 3 70 77q90 126 142 260q31 78 42 148q26 3 51.5 5.5t36.5 3.5l11 1q5 1 5 6.5t-5 12.5q-11 18 -23 16q-25 -3 -68 -7
q25 52 44 101q105 254 135 361q17 69 8.5 93.5t-40.5 21.5q-14 -1 -284 -280q-87 57 -222.5 57.5t-264 -37.5t-247.5 -100q-84 -43 -146 -92q-61 -50 -75 -86q-17 -40 20 -73q75 -66 570 -43q-319 -325 -448 -432q2 9 -8 20q-15 16 -22 9zM642 375q-529 -32 -597 28
q-5 5 3 24q14 34 73 82q63 50 144 91q82 43 173 75t184.5 50.5t182 12t150.5 -41.5l-40 -41q-166 -172 -273 -280zM944 623l47 49q55 -45 74 -116q14 -53 7 -124l-10 -21q-212 -22 -355 -31q27 28 237 243zM1278 958q2 0 -0.5 -4t-10 -18.5t-12.5 -31.5q-28 -104 -134 -359
q-7 -18 -17 -41q-4 26 -8 38q-23 88 -90 145q263 270 272 271zM1000 194q-33 -70 -70 -129q49 88 70 129zM1255 1170q-12 0 -20 -8q-9 -8 -9 -21q0 -16 13 -29q14 -12 27 -12q12 0 20 8q9 9 9 21q0 16 -13 29q-12 12 -27 12zM1356 1170q-12 0 -20 -8t-8 -21q0 -16 13 -29
q12 -12 26 -12q13 0 21 8q8 10 8 21q0 16 -13 29q-12 12 -27 12z" />
    <glyph glyph-name="Aring" unicode="&#xc5;" horiz-adv-x="1239" 
d="M129 -64q-1 0 -19 -17.5t-35 -40.5t-14 -35q9 -36 39 -28q71 18 571 528q147 8 373 29q-62 -130 -164 -311q-70 -126 -66 -142q9 -32 33 -26q17 3 70 77q90 126 142 260q31 78 42 148q26 3 51.5 5.5t36.5 3.5l11 1q5 1 5 6.5t-5 12.5q-11 18 -23 16q-25 -3 -68 -7
q25 52 44 101q105 254 135 361q17 69 8.5 93.5t-40.5 21.5q-14 -1 -284 -280q-87 57 -222.5 57.5t-264 -37.5t-247.5 -100q-84 -43 -146 -92q-61 -50 -75 -86q-17 -40 20 -73q75 -66 570 -43q-319 -325 -448 -432q2 9 -8 20q-15 16 -22 9zM642 375q-529 -32 -597 28
q-5 5 3 24q14 34 73 82q63 50 144 91q82 43 173 75t184.5 50.5t182 12t150.5 -41.5l-40 -41q-166 -172 -273 -280zM944 623l47 49q55 -45 74 -116q14 -53 7 -124l-10 -21q-212 -22 -355 -31q27 28 237 243zM1278 958q2 0 -0.5 -4t-10 -18.5t-12.5 -31.5q-28 -104 -134 -359
q-7 -18 -17 -41q-4 26 -8 38q-23 88 -90 145q263 270 272 271zM1000 194q-33 -70 -70 -129q49 88 70 129zM1296 1198q-23 0 -37 -14q-15 -17 -15 -37q0 -26 22 -50q21 -21 46 -21q22 0 37 15t15 37q0 27 -23 50q-20 20 -45 20zM1333 1163q5 -5 5 -16q0 -17 -13 -30
q-11 -12 -29 -12q-15 0 -21 6q-5 5 -5 17q0 18 13 29q11 13 29 13q14 0 21 -7z" />
    <glyph glyph-name="AE" unicode="&#xc6;" horiz-adv-x="1511" 
d="M1342 900q-10 -15 -26 -41l-100 -172q47 122 66 189q17 69 8.5 94t-40.5 21q-14 -1 -284 -280q-87 57 -222.5 57.5t-264 -37.5t-247.5 -100q-84 -43 -146 -92q-61 -50 -75 -86q-17 -40 20 -73q75 -66 570 -43q-330 -333 -448 -432q2 9 -8 20q-15 16 -22 9q-1 0 -19 -17.5
t-35 -40.5t-14 -35q9 -36 39 -28q71 18 571 528q147 8 373 29q-62 -130 -164 -311q-70 -126 -66 -142q9 -32 33 -26q19 6 70 77q29 40 61 93q11 -38 56 -35q105 6 273 32q44 6 90.5 14t68.5 12l22 3q7 -16 23 -20q7 -1 9.5 2.5t-1.5 9.5q-7 16 -26 23t-56 5.5t-66.5 -5
t-88.5 -12.5q-190 -27 -271 -31q-19 -1 -24 18q43 75 72 151q30 79 41 144l48 9q51 5 52 6q4 0 5 4q175 29 180 12q6 -18 26 -25q8 -4 12.5 -1t2.5 11q-17 56 -245 33h-4q-23 -3 -61 -7q10 20 15 29l20 37q14 26 22 40q67 121 180 308q687 79 693 48q2 -13 20 -22
q7 -3 11 -1.5t3 7.5q-14 74 -704 4l5 9q5 9 -11 22q-16 14 -22 5zM973 149q-20 -40 -49 -86q20 36 50 91q-1 -2 -1 -5zM636 373q-529 -32 -597 28q-5 5 3 24q14 34 73 82q63 50 144 91q82 43 173 75t184.5 50.5t182 12t150.5 -41.5l-40 -41q-166 -172 -273 -280zM938 621
l47 49q55 -45 74 -116q14 -53 7 -124l-10 -21q-212 -22 -355 -31q27 28 237 243zM1272 956q2 0 -0.5 -4t-10 -18.5t-12.5 -31.5q-28 -104 -134 -359q-7 -18 -17 -41q-4 26 -8 38q-23 88 -90 145q263 270 272 271z" />
    <glyph glyph-name="Ccedilla" unicode="&#xc7;" horiz-adv-x="872" 
d="M404 418q85 4 179 44.5t173 101.5q75 59 114 118q43 66 29 115q-10 34 -39 56q-10 9 -30 18q-52 20 -134 3.5t-177 -64.5q-216 -112 -359 -294q-77 -97 -118 -200q-62 -156 -28 -264q25 -82 99 -120q10 -5 19 -8l-22 -30q-4 -6 7 -19q9 -7 10 -7q5 -2 11.5 -5t14.5 -15
t2 -25q-9 -19 -29 -26q-9 -3 -19 -3q-10 2 -15 4q-6 4 -7 7q-4 14 -17 18q-5 2 -7 -0.5t0 -7.5q8 -27 38 -43q16 -6 24 -6q12 -2 23 3q22 6 34 30q23 48 -36 83l24 32q49 -11 111 0q256 43 629 386q7 7 -7 23q-15 16 -22 9q-369 -341 -623 -384q-91 -15 -149 15
q-45 22 -62 77q-31 99 29 248q42 102 116 197q146 185 356 291q92 47 169.5 63.5t123.5 -1.5q9 -2 16 -8q8 -7 13 -20q11 -39 -29 -98q-40 -60 -112 -116q-78 -61 -170 -100.5t-174 -42.5q-13 0 -2 -18q10 -17 23 -17z" />
    <glyph glyph-name="Egrave" unicode="&#xc8;" horiz-adv-x="691" 
d="M540 858l-3 -4q-3 -4 -11.5 -14.5t-15.5 -19.5q-49 0 -133 -2q-94 -1 -226 -6q-11 -1 -28 -2t-29.5 -1.5t-21.5 -1.5q-28 2 -28 -1q0 -1 2 -2q-76 -10 8 -26q21 -4 52 -8q1 0 50 -2q61 -1 102 -14.5t57.5 -34t22 -45t-0.5 -49t-14 -44.5t-16 -33l-8 -12q-2 -3 0 -11
q-7 -11 -21.5 -33.5t-21.5 -33.5l-155 -13q-12 -2 -1 -19q11 -18 23 -16l14 2q14 1 41.5 4t54.5 6q-242 -393 -95 -401q88 -5 275 4q44 2 90.5 4.5t68.5 4.5l23 1q8 -17 22 -22q6 -2 8.5 1t0.5 10q-11 30 -77 36.5t-158 -1.5q-198 -7 -272 -3q-49 2 0 105.5t158 264.5
q258 24 262 4q2 -15 19 -23q7 -4 11 -2t2 8q-11 59 -271 47q110 160 238 326q691 7 693 -23q2 -15 18 -24q4 -3 8 -3.5t5.5 1.5t1.5 6q-3 40 -206.5 58t-493.5 19l6 8q8 8 -9 23q-15 17 -21 7zM380 642q6 101 -101 139q51 1 119 3q13 0 42 0.5t44 0.5q-80 -109 -104 -143z
M597 970q-4 6 -7 12q-16 30 -16 46q0 11 -13 21q-5 4 -16.5 -2.5t-11.5 -11.5q-1 -19 26 -59t54 -35q2 0 4 2q7 4 -5 18q-7 9 -15 9z" />
    <glyph glyph-name="Eacute" unicode="&#xc9;" horiz-adv-x="691" 
d="M540 858l-3 -4q-3 -4 -11.5 -14.5t-15.5 -19.5q-49 0 -133 -2q-94 -1 -226 -6q-11 -1 -28 -2t-29.5 -1.5t-21.5 -1.5q-28 2 -28 -1q0 -1 2 -2q-76 -10 8 -26q21 -4 52 -8q1 0 50 -2q61 -1 102 -14.5t57.5 -34t22 -45t-0.5 -49t-14 -44.5t-16 -33l-8 -12q-2 -3 0 -11
q-7 -11 -21.5 -33.5t-21.5 -33.5l-155 -13q-12 -2 -1 -19q11 -18 23 -16l14 2q14 1 41.5 4t54.5 6q-242 -393 -95 -401q88 -5 275 4q44 2 90.5 4.5t68.5 4.5l23 1q8 -17 22 -22q6 -2 8.5 1t0.5 10q-11 30 -77 36.5t-158 -1.5q-198 -7 -272 -3q-49 2 0 105.5t158 264.5
q258 24 262 4q2 -15 19 -23q7 -4 11 -2t2 8q-11 59 -271 47q110 160 238 326q691 7 693 -23q2 -15 18 -24q4 -3 8 -3.5t5.5 1.5t1.5 6q-3 40 -206.5 58t-493.5 19l6 8q8 8 -9 23q-15 17 -21 7zM380 642q6 101 -101 139q51 1 119 3q13 0 42 0.5t44 0.5q-80 -109 -104 -143z
M600 960q3 2 10 9q23 25 27 40q4 11 18 16q6 2 16 -7t8 -14q-5 -19 -42 -49t-61 -19q-2 1 -4 3q-5 7 10 16q12 7 18 5z" />
    <glyph glyph-name="Ecircumflex" unicode="&#xca;" horiz-adv-x="691" 
d="M540 858l-3 -4q-3 -4 -11.5 -14.5t-15.5 -19.5q-49 0 -133 -2q-94 -1 -226 -6q-11 -1 -28 -2t-29.5 -1.5t-21.5 -1.5q-28 2 -28 -1q0 -1 2 -2q-76 -10 8 -26q21 -4 52 -8q1 0 50 -2q61 -1 102 -14.5t57.5 -34t22 -45t-0.5 -49t-14 -44.5t-16 -33l-8 -12q-2 -3 0 -11
q-7 -11 -21.5 -33.5t-21.5 -33.5l-155 -13q-12 -2 -1 -19q11 -18 23 -16l14 2q14 1 41.5 4t54.5 6q-242 -393 -95 -401q88 -5 275 4q44 2 90.5 4.5t68.5 4.5l23 1q8 -17 22 -22q6 -2 8.5 1t0.5 10q-11 30 -77 36.5t-158 -1.5q-198 -7 -272 -3q-49 2 0 105.5t158 264.5
q258 24 262 4q2 -15 19 -23q7 -4 11 -2t2 8q-11 59 -271 47q110 160 238 326q691 7 693 -23q2 -15 18 -24q4 -3 8 -3.5t5.5 1.5t1.5 6q-3 40 -206.5 58t-493.5 19l6 8q8 8 -9 23q-15 17 -21 7zM380 642q6 101 -101 139q51 1 119 3q13 0 42 0.5t44 0.5q-80 -109 -104 -143z
M551 930q4 6 39 29.5t63 37.5q5 3 18 8l-6 -51q0 -9 13 -20q12 -9 14 1q1 22 8 66q1 9 -5 20q-13 20 -35 15q-11 -3 -29 -11q-29 -15 -64.5 -39t-39.5 -31q-5 -7 7 -19t17 -6z" />
    <glyph glyph-name="Edieresis" unicode="&#xcb;" horiz-adv-x="691" 
d="M540 858l-3 -4q-3 -4 -11.5 -14.5t-15.5 -19.5q-49 0 -133 -2q-94 -1 -226 -6q-11 -1 -28 -2t-29.5 -1.5t-21.5 -1.5q-28 2 -28 -1q0 -1 2 -2q-76 -10 8 -26q21 -4 52 -8q1 0 50 -2q61 -1 102 -14.5t57.5 -34t22 -45t-0.5 -49t-14 -44.5t-16 -33l-8 -12q-2 -3 0 -11
q-7 -11 -21.5 -33.5t-21.5 -33.5l-155 -13q-12 -2 -1 -19q11 -18 23 -16l14 2q14 1 41.5 4t54.5 6q-242 -393 -95 -401q88 -5 275 4q44 2 90.5 4.5t68.5 4.5l23 1q8 -17 22 -22q6 -2 8.5 1t0.5 10q-11 30 -77 36.5t-158 -1.5q-198 -7 -272 -3q-49 2 0 105.5t158 264.5
q258 24 262 4q2 -15 19 -23q7 -4 11 -2t2 8q-11 59 -271 47q110 160 238 326q691 7 693 -23q2 -15 18 -24q4 -3 8 -3.5t5.5 1.5t1.5 6q-3 40 -206.5 58t-493.5 19l6 8q8 8 -9 23q-15 17 -21 7zM380 642q6 101 -101 139q51 1 119 3q13 0 42 0.5t44 0.5q-80 -109 -104 -143z
M537 1019q-13 0 -21 -8q-8 -10 -8 -21q0 -16 13 -29q12 -12 27 -12q12 0 20 8t8 21q0 16 -13 29q-12 12 -26 12zM638 1019q-12 0 -20 -8q-9 -11 -9 -21q0 -17 14 -29q11 -12 26 -12q11 0 21 8q8 8 8 21q0 16 -13 29q-14 12 -27 12z" />
    <glyph glyph-name="Igrave" unicode="&#xcc;" horiz-adv-x="464" 
d="M678 929q-1 -1 -31 -42l-247 4q-12 0 -3 -17q11 -18 23 -18l201 -3q-380 -507 -483 -709q-57 2 -105 1.5t-79 -1.5l-31 -2q-13 0 -2 -18q12 -18 23 -16h10q10 1 27.5 1.5t38.5 1.5t49.5 1.5t54.5 1.5q-1 -1 -2.5 -5t-2.5 -6q6 9 7 11q237 4 241 -17q4 -16 19 -23
q7 -4 10.5 -2t2.5 9q-10 53 -252 63q116 165 526 708l203 -3q12 0 3 17q-11 18 -24 18l-156 2l9 12q6 9 -9 24t-21 7zM714 1004q-1 1 -3 5.5t-4 6.5q-16 35 -15 46q0 10 -13 21q-5 4 -17 -2.5t-12 -11.5q0 -20 27 -59.5t53 -34.5q2 0 4 2q3 1 1.5 7t-6.5 11q-9 11 -15 9z
" />
    <glyph glyph-name="Iacute" unicode="&#xcd;" horiz-adv-x="464" 
d="M678 929q-1 -1 -31 -42l-247 4q-12 0 -3 -17q11 -18 23 -18l201 -3q-380 -507 -483 -709q-57 2 -105 1.5t-79 -1.5l-31 -2q-13 0 -2 -18q12 -18 23 -16h10q10 1 27.5 1.5t38.5 1.5t49.5 1.5t54.5 1.5q-1 -1 -2.5 -5t-2.5 -6q6 9 7 11q237 4 241 -17q4 -16 19 -23
q7 -4 10.5 -2t2.5 9q-10 53 -252 63q116 165 526 708l203 -3q12 0 3 17q-11 18 -24 18l-156 2l9 12q6 9 -9 24t-21 7zM720 999q3 2 10 9q23 25 27 40q4 11 18 16q6 2 16 -7t8 -14q-5 -19 -42 -49t-61 -19q-2 1 -4 3q-4 7 10 16q12 7 18 5z" />
    <glyph glyph-name="Icircumflex" unicode="&#xce;" horiz-adv-x="464" 
d="M678 929q-1 -1 -31 -42l-247 4q-12 0 -3 -17q11 -18 23 -18l201 -3q-380 -507 -483 -709q-57 2 -105 1.5t-79 -1.5l-31 -2q-13 0 -2 -18q12 -18 23 -16h10q10 1 27.5 1.5t38.5 1.5t49.5 1.5t54.5 1.5q-1 -1 -2.5 -5t-2.5 -6q6 9 7 11q237 4 241 -17q4 -16 19 -23
q7 -4 10.5 -2t2.5 9q-10 53 -252 63q116 165 526 708l203 -3q12 0 3 17q-11 18 -24 18l-156 2l9 12q6 9 -9 24t-21 7zM643 977q5 6 39 29.5t62 37.5q14 6 19 8l-6 -51q0 -11 12 -20q14 -9 14 1q2 22 8 66q2 11 -4 19q-12 21 -35 16q-11 -3 -29 -11q-29 -14 -64.5 -38.5
t-40.5 -31.5q-4 -7 8 -19q11 -13 17 -6z" />
    <glyph glyph-name="Idieresis" unicode="&#xcf;" horiz-adv-x="464" 
d="M678 929q-1 -1 -31 -42l-247 4q-12 0 -3 -17q11 -18 23 -18l201 -3q-380 -507 -483 -709q-57 2 -105 1.5t-79 -1.5l-31 -2q-13 0 -2 -18q12 -18 23 -16h10q10 1 27.5 1.5t38.5 1.5t49.5 1.5t54.5 1.5q-1 -1 -2.5 -5t-2.5 -6q6 9 7 11q237 4 241 -17q4 -16 19 -23
q7 -4 10.5 -2t2.5 9q-10 53 -252 63q116 165 526 708l203 -3q12 0 3 17q-11 18 -24 18l-156 2l9 12q6 9 -9 24t-21 7zM655 1064q-11 0 -20 -9q-8 -8 -8 -20q0 -16 13 -29q11 -13 26 -13q12 0 21 9q8 8 8 21q0 15 -13 28t-27 13zM757 1064q-10 0 -21 -9q-8 -8 -8 -20
q0 -16 13 -29t27 -13q11 0 20 9t9 21q0 16 -14 28q-11 13 -26 13z" />
    <glyph glyph-name="Eth" unicode="&#xd0;" horiz-adv-x="1133" 
d="M-256 451q0 2 10 24t34.5 61t60.5 84.5t94 94t128 89t170.5 70t213.5 37.5q271 19 440 -79q107 -62 152 -162q46 -100 20 -220q-31 -146 -166 -269q-104 -94 -233 -137.5t-260 -41.5q-132 3 -237 46q-94 41 -126 97q-22 41 -9 86q25 86 112 126q54 24 116 26
q64 3 126 -15q22 -6 42 -14q-168 -234 -107 -232q9 1 25 7q9 4 -3 21q-14 18 -23 12q72 89 143 175q91 -50 128 -131q7 -16 22 -20q6 -1 8 3t-1 11q-45 98 -142 156l40 49l77 -2q12 0 3 14q-12 14 -23 14l-35 1l53 64q6 9 -7 22q-15 17 -22 10l-74 -54q-8 -7 6 -23
q2 -2 3 -4q-8 -11 -10 -14l-133 4q-12 0 -3 -14q11 -14 23 -14l92 -3q-4 -5 -12 -15.5t-12 -15.5q-34 17 -72 27q-69 19 -133 16q-68 -3 -121 -28q-93 -41 -119 -133q-15 -55 15 -110q45 -80 162 -131q111 -46 248 -49q133 -2 264.5 42t237.5 140q137 125 170 275
q28 127 -24 239q-53 122 -184 198q-178 104 -459 85q-115 -8 -216.5 -38t-172.5 -71.5t-130 -90.5t-95.5 -95t-61.5 -86t-35 -62.5t-10 -24.5q-5 -9 12 -24q14 -14 20 -3z" />
    <glyph glyph-name="Ntilde" unicode="&#xd1;" horiz-adv-x="826" 
d="M-243 743q1 1 8 11q28 33 76.5 68t104.5 55q144 51 243 -19q6 -4 14 -10q36 -29 39 -93.5t-19.5 -143.5t-54.5 -161.5t-69 -156t-60.5 -118t-30.5 -56.5l-1 -1q-6 -10 10 -24t21 -5q14 19 33 45t73.5 99t108.5 139t125 149.5t137 147t130.5 116t119.5 72t90 -0.5
q31 -16 -90 -290q-1 -3 -2 -5t-2 -4.5t-2 -4.5q-22 -49 -34 -76.5t-32 -76t-30 -78.5t-22.5 -73.5t-15.5 -72t-3 -63t9 -58.5t26.5 -46.5t43.5 -37.5q7 -4 11 -2.5t3 7.5q-2 15 -18 24q-18 11 -29 27t-13 40.5t-1.5 47t11 58t19 61t26.5 69t29 68.5t33 73t32 70
q43 96 65.5 164t21 128t-39.5 81q-44 24 -112 -1.5t-139.5 -81.5t-154.5 -139.5t-150 -162t-133 -163.5q187 419 47 533q-3 2 -9 6.5t-9 6.5q-116 82 -270 27q-58 -21 -108.5 -56.5t-77.5 -69.5q-6 -8 -9 -11q-6 -10 10 -24q15 -15 21 -7zM402 969q1 1 4 3.5t10.5 7.5
t15.5 7.5t18 1.5t19 -7q38 -28 66 -26q24 1 44 28q6 8 -9 25q-16 16 -23 8q-18 -23 -35 -24q-18 0 -42 17q-27 17 -49 15.5t-35 -11.5l-14 -11q-8 -7 7 -24q16 -17 23 -10z" />
    <glyph glyph-name="Ograve" unicode="&#xd2;" horiz-adv-x="942" 
d="M1146 815q-176 35 -391 5q-109 43 -237 48q-225 7 -460.5 -78.5t-362.5 -236.5q-3 -4 1.5 -17.5t10.5 -19.5q14 -16 22 -8q126 150 364 237t461 81q80 -3 139 -17q-119 -23 -222 -69q-284 -126 -402 -404q-67 -154 -9 -251q40 -65 120 -90q67 -22 160 -11
q143 16 289 98.5t232 215.5q132 205 68 366q-32 78 -113 126q201 22 345 -10q6 -1 8 3t-1 11q-7 17 -22 21zM772 784q6 -2 10 -4q88 -39 117 -108q53 -130 -81 -338q-85 -132 -224 -215.5t-276 -100.5q-87 -9 -150 10q-59 19 -82 58q-47 78 14 222q117 273 397 399
q125 55 275 77zM678 966q-1 1 -3 5.5t-4 6.5q-15 32 -15 46q0 11 -13 20q-5 4 -17 -2t-12 -11q0 -20 27.5 -59.5t53.5 -34.5q1 0 3 2q7 3 -4 18q-9 9 -16 9z" />
    <glyph glyph-name="Oacute" unicode="&#xd3;" horiz-adv-x="942" 
d="M1146 815q-176 35 -391 5q-109 43 -237 48q-225 7 -460.5 -78.5t-362.5 -236.5q-3 -4 1.5 -17.5t10.5 -19.5q14 -16 22 -8q126 150 364 237t461 81q80 -3 139 -17q-119 -23 -222 -69q-284 -126 -402 -404q-67 -154 -9 -251q40 -65 120 -90q67 -22 160 -11
q143 16 289 98.5t232 215.5q132 205 68 366q-32 78 -113 126q201 22 345 -10q6 -1 8 3t-1 11q-7 17 -22 21zM772 784q6 -2 10 -4q88 -39 117 -108q53 -130 -81 -338q-85 -132 -224 -215.5t-276 -100.5q-87 -9 -150 10q-59 19 -82 58q-47 78 14 222q117 273 397 399
q125 55 275 77zM720 999q3 2 10 9q23 25 27 40q4 11 18 16q6 2 16 -7t8 -14q-5 -19 -42 -49t-61 -19q-2 1 -4 3q-4 7 10 16q12 7 18 5z" />
    <glyph glyph-name="Ocircumflex" unicode="&#xd4;" horiz-adv-x="942" 
d="M1146 815q-176 35 -391 5q-109 43 -237 48q-225 7 -460.5 -78.5t-362.5 -236.5q-3 -4 1.5 -17.5t10.5 -19.5q14 -16 22 -8q126 150 364 237t461 81q80 -3 139 -17q-119 -23 -222 -69q-284 -126 -402 -404q-67 -154 -9 -251q40 -65 120 -90q67 -22 160 -11
q143 16 289 98.5t232 215.5q132 205 68 366q-32 78 -113 126q201 22 345 -10q6 -1 8 3t-1 11q-7 17 -22 21zM772 784q6 -2 10 -4q88 -39 117 -108q53 -130 -81 -338q-85 -132 -224 -215.5t-276 -100.5q-87 -9 -150 10q-59 19 -82 58q-47 78 14 222q117 273 397 399
q125 55 275 77zM638 948q4 6 39 30t63 38q17 7 19 8l-6 -51q-2 -9 12 -21q12 -9 14 1q1 22 8 67q2 9 -5 19q-13 20 -34 15q-7 -1 -29 -11q-29 -15 -65 -39t-40 -31q-5 -5 7 -19q13 -13 17 -6z" />
    <glyph glyph-name="Otilde" unicode="&#xd5;" horiz-adv-x="942" 
d="M1146 815q-176 35 -391 5q-109 43 -237 48q-225 7 -460.5 -78.5t-362.5 -236.5q-3 -4 1.5 -17.5t10.5 -19.5q14 -16 22 -8q126 150 364 237t461 81q80 -3 139 -17q-119 -23 -222 -69q-284 -126 -402 -404q-67 -154 -9 -251q40 -65 120 -90q67 -22 160 -11
q143 16 289 98.5t232 215.5q132 205 68 366q-32 78 -113 126q201 22 345 -10q6 -1 8 3t-1 11q-7 17 -22 21zM772 784q6 -2 10 -4q88 -39 117 -108q53 -130 -81 -338q-85 -132 -224 -215.5t-276 -100.5q-87 -9 -150 10q-59 19 -82 58q-47 78 14 222q117 273 397 399
q125 55 275 77zM667 985q1 1 4 3.5t10.5 7.5t15.5 7.5t18 1.5t19 -7q38 -27 66 -26q24 1 44 28q6 9 -10 25q-15 17 -22 8q-17 -23 -36 -24q-16 -1 -41 17q-28 17 -50 15.5t-35 -11.5l-14 -11q-7 -7 8 -24q16 -17 23 -10z" />
    <glyph glyph-name="Odieresis" unicode="&#xd6;" horiz-adv-x="942" 
d="M1146 815q-176 35 -391 5q-109 43 -237 48q-225 7 -460.5 -78.5t-362.5 -236.5q-3 -4 1.5 -17.5t10.5 -19.5q14 -16 22 -8q126 150 364 237t461 81q80 -3 139 -17q-119 -23 -222 -69q-284 -126 -402 -404q-67 -154 -9 -251q40 -65 120 -90q67 -22 160 -11
q143 16 289 98.5t232 215.5q132 205 68 366q-32 78 -113 126q201 22 345 -10q6 -1 8 3t-1 11q-7 17 -22 21zM772 784q6 -2 10 -4q88 -39 117 -108q53 -130 -81 -338q-85 -132 -224 -215.5t-276 -100.5q-87 -9 -150 10q-59 19 -82 58q-47 78 14 222q117 273 397 399
q125 55 275 77zM655 1064q-11 0 -20 -9q-8 -8 -8 -20q0 -16 13 -29q11 -13 26 -13q12 0 21 9q8 8 8 21q0 15 -13 28t-27 13zM757 1064q-10 0 -21 -9q-8 -8 -8 -20q0 -16 13 -29t27 -13q11 0 20 9t9 21q0 16 -14 28q-11 13 -26 13z" />
    <glyph glyph-name="multiply" unicode="&#xd7;" 
 />
    <glyph glyph-name="Oslash" unicode="&#xd8;" horiz-adv-x="942" 
d="M1146 815q-116 24 -273 16q45 59 41 70q-8 28 -30 21q-8 -2 2 -16q1 -1 1 -2q-7 -13 -58 -76q-24 -2 -74 -8q-109 43 -237 48q-146 5 -301 -29.5t-296 -109.5t-226 -176q-3 -4 1.5 -17t10.5 -20q14 -16 22 -8q126 150 363.5 237.5t460.5 80.5q81 -3 140 -17
q-118 -22 -222 -68q-285 -127 -402 -405q-67 -154 -9 -250q20 -34 54 -59q-59 -75 -56 -90q3 -29 28 -26q9 2 0 15q0 2 -1 2q9 22 58 82q19 -9 37 -15q67 -22 160 -11q143 16 289 98.5t232 215.5q132 206 68 366q-29 69 -98 116q2 2 5.5 6.5t5.5 6.5q185 16 319 -13
q6 -1 8 3.5t-1 11.5q-7 16 -22 20zM816 763q61 -38 83 -91q52 -129 -81 -338q-85 -132 -224 -215.5t-276 -100.5q-87 -9 -150 10q-6 2 -8 3q81 97 364 407q226 247 292 325zM128 45q-29 18 -42 41q-47 78 14 222q118 274 397 399q123 54 275 78q4 -2 10 -4q2 -2 4 -2
q-79 -91 -285 -316q-277 -300 -373 -418z" />
    <glyph glyph-name="Ugrave" unicode="&#xd9;" horiz-adv-x="659" 
d="M-338 623q28 78 184 145q146 63 279 70q120 6 124 -45v-4q0 -28 -20.5 -75t-42.5 -84.5t-68 -111.5q-5 -8 -15 -24.5t-15 -25.5q-78 -129 -88 -234q-5 -58 15 -97q21 -44 60 -59.5t87 -3.5q119 31 365 291q-158 -290 -60 -395q15 -15 22 -8q7 8 -8 23q-27 28 -27 78.5
t20 107t56.5 126t75.5 129.5t85 125q91 111 165 214q7 9 -9 24q-14 14 -21 7l-10 -10q-10 -9 -27.5 -28t-38 -42t-46.5 -55.5t-49 -64.5q-63 -76 -109 -129.5t-129 -143t-155 -146t-124 -69.5q-74 -19 -95 24q-14 31 -10 78q8 102 86 228q20 34 30 50q48 79 69 115t42 85
t21 79q1 102 -149 111.5t-312 -61t-190 -167.5q-4 -12 12 -24q16 -14 20 -3zM597 970q-4 6 -7 12q-16 30 -16 46q0 11 -13 21q-5 4 -16.5 -2.5t-11.5 -11.5q-1 -19 26 -59t54 -35q2 0 4 2q7 4 -5 18q-7 9 -15 9z" />
    <glyph glyph-name="Uacute" unicode="&#xda;" horiz-adv-x="659" 
d="M-338 623q28 78 184 145q146 63 279 70q120 6 124 -45v-4q0 -28 -20.5 -75t-42.5 -84.5t-68 -111.5q-5 -8 -15 -24.5t-15 -25.5q-78 -129 -88 -234q-5 -58 15 -97q21 -44 60 -59.5t87 -3.5q119 31 365 291q-158 -290 -60 -395q15 -15 22 -8q7 8 -8 23q-27 28 -27 78.5
t20 107t56.5 126t75.5 129.5t85 125q91 111 165 214q7 9 -9 24q-14 14 -21 7l-10 -10q-10 -9 -27.5 -28t-38 -42t-46.5 -55.5t-49 -64.5q-63 -76 -109 -129.5t-129 -143t-155 -146t-124 -69.5q-74 -19 -95 24q-14 31 -10 78q8 102 86 228q20 34 30 50q48 79 69 115t42 85
t21 79q1 102 -149 111.5t-312 -61t-190 -167.5q-4 -12 12 -24q16 -14 20 -3zM516 897l10 10q25 27 28 40q2 9 18 15q6 2 15.5 -6.5t8.5 -13.5q-6 -20 -43 -50t-61 -18q-1 0 -3 2q-5 6 10 17q11 7 17 4z" />
    <glyph glyph-name="Ucircumflex" unicode="&#xdb;" horiz-adv-x="659" 
d="M-338 623q28 78 184 145q146 63 279 70q120 6 124 -45v-4q0 -28 -20.5 -75t-42.5 -84.5t-68 -111.5q-5 -8 -15 -24.5t-15 -25.5q-78 -129 -88 -234q-5 -58 15 -97q21 -44 60 -59.5t87 -3.5q119 31 365 291q-158 -290 -60 -395q15 -15 22 -8q7 8 -8 23q-27 28 -27 78.5
t20 107t56.5 126t75.5 129.5t85 125q91 111 165 214q7 9 -9 24q-14 14 -21 7l-10 -10q-10 -9 -27.5 -28t-38 -42t-46.5 -55.5t-49 -64.5q-63 -76 -109 -129.5t-129 -143t-155 -146t-124 -69.5q-74 -19 -95 24q-14 31 -10 78q8 102 86 228q20 34 30 50q48 79 69 115t42 85
t21 79q1 102 -149 111.5t-312 -61t-190 -167.5q-4 -12 12 -24q16 -14 20 -3zM495 871q4 6 39 29.5t63 37.5q18 7 19 8l-6 -51q0 -11 12 -20q3 -3 6.5 -4t5.5 0.5t2 3.5q0 17 8 67q2 11 -4 19q-14 21 -35 16q-13 -3 -29 -12q-28 -14 -64 -38.5t-41 -30.5t7 -20q14 -12 17 -5z
" />
    <glyph glyph-name="Udieresis" unicode="&#xdc;" horiz-adv-x="659" 
d="M-338 623q28 78 184 145q146 63 279 70q120 6 124 -45v-4q0 -28 -20.5 -75t-42.5 -84.5t-68 -111.5q-5 -8 -15 -24.5t-15 -25.5q-78 -129 -88 -234q-5 -58 15 -97q21 -44 60 -59.5t87 -3.5q119 31 365 291q-158 -290 -60 -395q15 -15 22 -8q7 8 -8 23q-27 28 -27 78.5
t20 107t56.5 126t75.5 129.5t85 125q91 111 165 214q7 9 -9 24q-14 14 -21 7l-10 -10q-10 -9 -27.5 -28t-38 -42t-46.5 -55.5t-49 -64.5q-63 -76 -109 -129.5t-129 -143t-155 -146t-124 -69.5q-74 -19 -95 24q-14 31 -10 78q8 102 86 228q20 34 30 50q48 79 69 115t42 85
t21 79q1 102 -149 111.5t-312 -61t-190 -167.5q-4 -12 12 -24q16 -14 20 -3zM488 970q-12 0 -20 -9q-8 -8 -8 -20q0 -16 13 -29q10 -12 26 -12q13 0 21 8t8 21q0 14 -13 29q-12 12 -27 12zM590 970q-12 0 -20 -9q-9 -7 -9 -20q0 -16 13 -29q12 -12 27 -12q12 0 20 8
q9 8 9 21q0 14 -13 29q-14 12 -27 12z" />
    <glyph glyph-name="Yacute" unicode="&#xdd;" horiz-adv-x="884" 
d="M-185 609q48 69 146 119t202 70.5t194 13.5q64 -5 76 -18v-1l-1 -1q-3 -38 -98 -187q-40 -62 -60.5 -96.5t-42.5 -82t-24 -77.5q-5 -84 89 -90q43 -2 99.5 24.5t127.5 84t113.5 96t115.5 108.5q84 80 102 95q-13 -37 -43 -107q-41 -95 -83 -179q-174 -72 -331 -168
t-255 -195q-24 -25 -46.5 -54t-43.5 -67t-32.5 -74t-8.5 -75.5t24 -70.5q27 -40 80 -63l1 -1q2 -1 6.5 -2t6.5 -2q152 -48 394 319q122 187 235 421q67 26 92 34q11 4 -2 21t-23 13q-9 -3 -41 -14q37 78 58 129q38 85 53 133q14 44 -23 56q-7 2 -19.5 -4.5t-36 -27
t-40.5 -36t-53 -50.5q-166 -158 -238 -215q-139 -109 -213 -105q-34 2 -32 43q2 28 24.5 75.5t40 77t59.5 96.5q33 52 50 79t33.5 61t17.5 54q1 19 -17 39q-30 33 -110 38q-88 7 -200.5 -13t-219.5 -69t-153 -115q-6 -10 10 -24q6 -6 21.5 -13t18.5 -3zM885 687l3 -1
q-1 0 -5 1q2 2 2 0zM492 -42q-236 -360 -376 -316l-9 3l-1 1q-34 15 -48 35q-14 21 -14.5 47.5t11 55t26.5 56t37 55.5t38 47t33 36q93 95 228 186.5t283 158.5q-103 -206 -208 -365zM641 810l3 3t4 3.5t3 3.5q25 27 28 40q4 10 18 15q6 2 16 -7t8 -13q-5 -20 -42 -50
t-62 -18q-1 0 -3 2q-4 7 10 16q10 7 17 5z" />
    <glyph glyph-name="Thorn" unicode="&#xde;" horiz-adv-x="685" 
d="M326 841l-243 -653l-7 1q-3 1 -3 -2q-1 -4 6 -11l-60 -161q-3 -6 17 -23q19 -15 22 -10l63 170q102 -15 182 2q113 21 185 98q62 65 77 151q6 44 -1 79q-16 83 -113 132q-61 30 -145 34l59 160q3 6 -17 23q-5 4 -10 7t-8 3.5t-4 -0.5zM293 613h2q24 3 78 -2.5t99 -27.5
q42 -21 53 -72q8 -36 0 -77q-13 -83 -75 -149q-71 -75 -183 -97q-60 -12 -135 -6z" />
    <glyph glyph-name="germandbls" unicode="&#xdf;" horiz-adv-x="816" 
d="M44 31q13 1 27 21t32 66.5t31 85.5t36 113q20 62 30.5 94t31 92.5t35 95t35.5 84t39.5 78.5t40 58.5t44.5 44t46 17.5q70 7 90 -21q14 -23 19 -57q3 -34 -8 -73q-15 -52 -54.5 -92t-97.5 -54q-57 -12 -52 -33q4 -18 26.5 -36t68.5 -45q34 -21 50.5 -32t48 -38t47.5 -50
t27.5 -59t8.5 -74q-7 -71 -59 -122t-126 -73q-58 -16 -115 -10q-52 6 -79 29q-62 52 -24 188q2 7 -18 23q-5 4 -9.5 7t-7.5 3.5t-4 -1.5q-43 -149 57 -232q49 -42 118 -52q61 -6 119 11q75 22 128 74t59 124q4 45 -11 88t-36 72t-60.5 61.5t-63 48t-64.5 40.5q-40 25 -42 27
q-2 7 10 13.5t40 12.5q59 14 99 55t56 94q10 36 7 75q-3 37 -25 70q-59 84 -159 73q-24 -3 -47 -17.5t-45 -44.5t-40.5 -58.5t-40 -79t-36 -84t-35.5 -95.5t-31 -92.5t-30 -94.5q-46 -145 -73 -214t-49 -70q-8 -2 8 -18q19 -19 27 -17z" />
    <glyph glyph-name="agrave" unicode="&#xe0;" horiz-adv-x="261" 
d="M165 326q-12 41 -61.5 45t-82.5 -26q-40 -32 -62 -80q-10 -21 -11 -38q-3 -23 12 -42q12 -12 20 -15q25 -11 95 55q-1 -36 22 -47t58 8q27 14 132 108q8 8 -3 21q-10 9 -20 -1l-7 -5q-126 -102 -129 -81q-5 25 8 59q5 8 -8 22q-15 15 -22 8q-91 -106 -126 -116
q17 70 69 112q17 14 42.5 22t44.5 -3q7 -16 22 -20q6 -2 8 2t-1 12zM107 428q-4 6 -5 9q-12 22 -12 34q0 8 -9 15q-4 3 -12.5 -1.5t-9.5 -8.5q0 -15 20 -43.5t40 -25.5q2 0 2 1q5 3 -3 13q-7 8 -11 7z" />
    <glyph glyph-name="aacute" unicode="&#xe1;" horiz-adv-x="261" 
d="M165 326q-12 41 -61.5 45t-82.5 -26q-40 -32 -62 -80q-10 -21 -11 -38q-3 -23 12 -42q12 -12 20 -15q25 -11 95 55q-1 -36 22 -47t58 8q27 14 132 108q8 8 -3 21q-10 9 -20 -1l-7 -5q-126 -102 -129 -81q-5 25 8 59q5 8 -8 22q-15 15 -22 8q-91 -106 -126 -116
q17 70 69 112q17 14 42.5 22t44.5 -3q7 -16 22 -20q6 -2 8 2t-1 12zM111 430q-5 2 -12 -5q-9 -9 -5 -13l1 -1q1 -1 2 -1q19 -5 42 21.5t24 40.5q1 4 -7 9.5t-12 2.5q-10 -5 -12 -13q0 -11 -15 -33q-4 -6 -6 -8z" />
    <glyph glyph-name="acircumflex" unicode="&#xe2;" horiz-adv-x="261" 
d="M165 326q-12 41 -61.5 45t-82.5 -26q-40 -32 -62 -80q-10 -21 -11 -38q-3 -23 12 -42q12 -12 20 -15q25 -11 95 55q-1 -36 22 -47t58 8q27 14 132 108q8 8 -3 21q-10 9 -20 -1l-7 -5q-126 -102 -129 -81q-5 25 8 59q5 8 -8 22q-15 15 -22 8q-91 -106 -126 -116
q17 70 69 112q17 14 42.5 22t44.5 -3q7 -16 22 -20q6 -2 8 2t-1 12zM47 406q4 5 29.5 22.5t45.5 27.5q10 4 14 6l-4 -38q-2 -8 9 -15q10 -8 10 0q1 17 6 50q1 7 -3 14q-10 16 -26 11q-9 -2 -22 -8q-21 -10 -47 -28.5t-30 -23.5q-5 -4 5 -14q9 -9 13 -4z" />
    <glyph glyph-name="atilde" unicode="&#xe3;" horiz-adv-x="261" 
d="M165 326q-12 41 -61.5 45t-82.5 -26q-40 -32 -62 -80q-10 -21 -11 -38q-3 -23 12 -42q12 -12 20 -15q25 -11 95 55q-1 -36 22 -47t58 8q27 14 132 108q8 8 -3 21q-10 9 -20 -1l-7 -5q-126 -102 -129 -81q-5 25 8 59q5 8 -8 22q-15 15 -22 8q-91 -106 -126 -116
q17 70 69 112q17 14 42.5 22t44.5 -3q7 -16 22 -20q6 -2 8 2t-1 12zM80 415q2 2 6 5t15 6.5t18 -4.5q20 -15 38 -15q13 1 26 17q4 4 -6 14q-9 11 -13 5q-8 -12 -21 -14q-10 0 -24 10q-16 10 -28.5 9t-20.5 -7l-8 -6q-4 -5 5 -14q9 -10 13 -6z" />
    <glyph glyph-name="adieresis" unicode="&#xe4;" horiz-adv-x="261" 
d="M165 326q-12 41 -61.5 45t-82.5 -26q-40 -32 -62 -80q-10 -21 -11 -38q-3 -23 12 -42q12 -12 20 -15q25 -11 95 55q-1 -36 22 -47t58 8q27 14 132 108q8 8 -3 21q-10 9 -20 -1l-7 -5q-126 -102 -129 -81q-5 25 8 59q5 8 -8 22q-15 15 -22 8q-91 -106 -126 -116
q17 70 69 112q17 14 42.5 22t44.5 -3q7 -16 22 -20q6 -2 8 2t-1 12zM82 444q-7 0 -10 -4q-4 -3 -4 -10q0 -9 6 -15q7 -7 14 -7t10 5q5 3 5 10q0 8 -7 15q-6 6 -14 6zM135 444q-7 0 -11 -4q-4 -3 -4 -10q0 -9 7 -15q5 -7 13 -7q6 0 11 5q4 4 4 10q0 8 -7 15q-6 6 -13 6z" />
    <glyph glyph-name="aring" unicode="&#xe5;" horiz-adv-x="261" 
d="M165 326q-12 41 -61.5 45t-82.5 -26q-40 -32 -62 -80q-10 -21 -11 -38q-3 -23 12 -42q12 -12 20 -15q25 -11 95 55q-1 -36 22 -47t58 8q27 14 132 108q8 8 -3 21q-10 9 -20 -1l-7 -5q-126 -102 -129 -81q-5 25 8 59q5 8 -8 22q-15 15 -22 8q-91 -106 -126 -116
q17 70 69 112q17 14 42.5 22t44.5 -3q7 -16 22 -20q6 -2 8 2t-1 12zM100 473q-13 0 -22 -9t-9 -22q0 -16 14 -30q12 -12 27 -12q13 0 22 9t9 22q0 15 -13 30q-14 12 -28 12zM122 452q3 -3 3 -10q0 -11 -7 -17q-8 -8 -18 -8q-8 0 -12 4q-3 3 -3 10q0 9 7 18q9 7 18 7t12 -4z
" />
    <glyph glyph-name="ae" unicode="&#xe6;" horiz-adv-x="261" 
d="M165 326q-12 41 -61.5 45t-82.5 -26q-40 -32 -62 -80q-10 -21 -11 -38q-3 -23 12 -42q12 -12 20 -15q25 -11 95 55q-1 -36 22 -47t58 8q27 14 132 108q8 8 -3 21q-10 9 -20 -1l-7 -5q-126 -102 -129 -81q-5 25 8 59q5 8 -8 22q-15 15 -22 8q-91 -106 -126 -116
q17 70 69 112q17 14 42.5 22t44.5 -3q7 -16 22 -20q6 -2 8 2t-1 12z" />
    <glyph glyph-name="ccedilla" unicode="&#xe7;" horiz-adv-x="249" 
d="M136 285q2 4 4.5 10.5t6 23t1.5 29t-14.5 23.5t-36.5 12q-17 1 -46.5 -18t-54.5 -47q-21 -25 -31 -43q-13 -24 -13 -46q-2 -35 30 -64q11 -10 27.5 -11.5t35.5 3.5t40.5 14t42.5 21.5t41 25.5t37.5 26t31 23t20.5 17l8 6q7 7 -7 23q-4 1 -11.5 -5t-8.5 -6l-12 -8
q-12 -9 -30.5 -21.5t-42.5 -28t-48 -29t-47.5 -23.5t-40.5 -12t-27 5q-7 7 -7 22q2 20 12 39q13 22 30 41q23 26 50 44t41 17q2 0 -1 -9t-7 -17.5t-5 -8.5q-4 -10 12 -24q15 -15 20 -4z" />
    <glyph glyph-name="egrave" unicode="&#xe8;" horiz-adv-x="241" 
d="M37 315q22 26 61 55q22 16 39 24q-1 -2 -2.5 -5.5t-2.5 -5.5q-21 -36 -50 -51q-27 -12 -45 -17zM108 299q35 18 55 55q9 18 10 28q3 19 -12 36q-11 12 -24 15q-19 3 -67 -30q-34 -24 -65 -59q-33 -38 -40 -74q-6 -29 7.5 -56.5t39.5 -41.5q47 -26 137 23.5t116 94.5
q4 9 -5 18q-7 5 -13 2.5t-9 -7.5q-17 -31 -96 -70q-96 -46 -133 -28q-28 13 -4 64q4 0 17.5 2t39 9.5t46.5 18.5zM131 479q-1 1 -2.5 4l-2.5 5q-12 26 -12 34q2 6 -9 15q-4 3 -12.5 -1.5t-8.5 -8.5q0 -15 20 -43.5t39 -25.5q2 0 3 1q4 5 -4 13q-6 7 -11 7z" />
    <glyph glyph-name="eacute" unicode="&#xe9;" horiz-adv-x="241" 
d="M37 315q22 26 61 55q22 16 39 24q-1 -2 -2.5 -5.5t-2.5 -5.5q-21 -36 -50 -51q-27 -12 -45 -17zM108 299q35 18 55 55q9 18 10 28q3 19 -12 36q-11 12 -24 15q-19 3 -67 -30q-34 -24 -65 -59q-33 -38 -40 -74q-6 -29 7.5 -56.5t39.5 -41.5q47 -26 137 23.5t116 94.5
q4 9 -5 18q-7 5 -13 2.5t-9 -7.5q-17 -31 -96 -70q-96 -46 -133 -28q-28 13 -4 64q4 0 17.5 2t39 9.5t46.5 18.5zM142 476q-5 2 -12 -5q-10 -10 -5 -13l2 -2q19 -5 42.5 21.5t24.5 41.5q1 3 -7.5 8.5t-12.5 3.5q-9 -7 -11 -14q0 -11 -15 -32q-3 -6 -6 -9z" />
    <glyph glyph-name="ecircumflex" unicode="&#xea;" horiz-adv-x="241" 
d="M37 315q22 26 61 55q22 16 39 24q-1 -2 -2.5 -5.5t-2.5 -5.5q-21 -36 -50 -51q-27 -12 -45 -17zM108 299q35 18 55 55q9 18 10 28q3 19 -12 36q-11 12 -24 15q-19 3 -67 -30q-34 -24 -65 -59q-33 -38 -40 -74q-6 -29 7.5 -56.5t39.5 -41.5q47 -26 137 23.5t116 94.5
q4 9 -5 18q-7 5 -13 2.5t-9 -7.5q-17 -31 -96 -70q-96 -46 -133 -28q-28 13 -4 64q4 0 17.5 2t39 9.5t46.5 18.5zM101 449q3 4 28.5 22t46.5 28q10 4 14 6l-5 -38q0 -8 10 -15q10 -8 10 0q1 17 6 50q1 5 -4 14q-9 16 -25 11q-9 -1 -22 -8q-21 -10 -47 -28.5t-30 -23.5
q-5 -5 5 -14q9 -9 13 -4z" />
    <glyph glyph-name="edieresis" unicode="&#xeb;" horiz-adv-x="241" 
d="M37 315q22 26 61 55q22 16 39 24q-1 -2 -2.5 -5.5t-2.5 -5.5q-21 -36 -50 -51q-27 -12 -45 -17zM108 299q35 18 55 55q9 18 10 28q3 19 -12 36q-11 12 -24 15q-19 3 -67 -30q-34 -24 -65 -59q-33 -38 -40 -74q-6 -29 7.5 -56.5t39.5 -41.5q47 -26 137 23.5t116 94.5
q4 9 -5 18q-7 5 -13 2.5t-9 -7.5q-17 -31 -96 -70q-96 -46 -133 -28q-28 13 -4 64q4 0 17.5 2t39 9.5t46.5 18.5zM124 498q-6 0 -10 -4q-5 -5 -5 -11q0 -8 7 -15q6 -6 14 -6q6 0 10 4t4 11q0 9 -6 15t-14 6zM176 498q-6 0 -10 -4q-5 -5 -5 -11q0 -8 7 -15q6 -6 14 -6
q6 0 10 4q5 5 5 11q0 8 -7 15q-6 6 -14 6z" />
    <glyph glyph-name="igrave" unicode="&#xec;" horiz-adv-x="165" 
d="M64 387q-47 -39 -82 -107q-29 -59 -10 -93q9 -15 25 -17.5t35 5.5t40 21.5t40.5 30.5t35 31t24.5 24l10 10q8 8 -1 16q-8 8 -19 -3q0 -2 -29 -28t-67 -52t-56 -23q-17 9 3 49q33 64 80 104q8 7 -6 23t-23 9zM82 446q-4 4 -5 8q-12 22 -12 34q0 8 -9 15q-4 3 -12.5 -1.5
t-8.5 -7.5q-1 -15 19 -44t40 -26h1q1 1 2 1q4 4 -4 14q-7 7 -11 7z" />
    <glyph glyph-name="iacute" unicode="&#xed;" horiz-adv-x="165" 
d="M64 387q-47 -39 -82 -107q-29 -59 -10 -93q9 -15 25 -17.5t35 5.5t40 21.5t40.5 30.5t35 31t24.5 24l10 10q8 8 -1 16q-8 8 -19 -3q0 -2 -29 -28t-67 -52t-56 -23q-17 9 3 49q33 64 80 104q8 7 -6 23t-23 9zM103 443q-5 2 -12 -5q-10 -10 -5 -13l2 -2q19 -5 42.5 21.5
t24.5 40.5q1 4 -7.5 9.5t-12.5 2.5q-9 -5 -11 -13q0 -11 -15 -33q-4 -6 -6 -8z" />
    <glyph glyph-name="icircumflex" unicode="&#xee;" horiz-adv-x="165" 
d="M64 387q-47 -39 -82 -107q-29 -59 -10 -93q9 -15 25 -17.5t35 5.5t40 21.5t40.5 30.5t35 31t24.5 24l10 10q8 8 -1 16q-8 8 -19 -3q0 -2 -29 -28t-67 -52t-56 -23q-17 9 3 49q33 64 80 104q8 7 -6 23t-23 9zM38 421q3 5 28.5 22.5t47.5 27.5q8 5 14 6l-5 -37q0 -8 9 -15
q10 -7 10 0q1 17 7 49q0 8 -4 15q-10 14 -26 11q-7 -1 -21 -8q-22 -11 -48.5 -29t-29.5 -23t6 -14q8 -8 12 -5z" />
    <glyph glyph-name="idieresis" unicode="&#xef;" horiz-adv-x="165" 
d="M64 387q-47 -39 -82 -107q-29 -59 -10 -93q9 -15 25 -17.5t35 5.5t40 21.5t40.5 30.5t35 31t24.5 24l10 10q8 8 -1 16q-8 8 -19 -3q0 -2 -29 -28t-67 -52t-56 -23q-17 9 3 49q33 64 80 104q8 7 -6 23t-23 9zM82 467q-5 0 -10 -5q-4 -3 -4 -10q0 -9 6 -15t14 -6q7 0 11 4
q4 6 4 11q0 6 -7 15q-8 6 -14 6zM135 467q-6 0 -11 -5q-4 -4 -4 -10q0 -9 7 -15q6 -6 13 -6t11 4q4 6 4 11q0 8 -7 15q-8 6 -13 6z" />
    <glyph glyph-name="eth" unicode="&#xf0;" horiz-adv-x="231" 
d="M34 358q-2 -1 -5 -3.5t-4 -3.5q-33 -30 -52 -86q-19 -61 4 -95l6 -6q8 -9 20 -16q19 -10 39 -4q13 4 34 21q22 19 41 56q12 20 19 50q48 -17 113 19q9 6 -1 19q-7 8 -18 2q-38 -22 -90 -12q3 23 0 43q-3 22 -11 36q-11 23 -31 34q-13 6 -25 5q-17 -3 -20 -26
q-2 -23 10 -49q13 -29 39 -51q-7 -24 -16 -41q-18 -35 -39 -53q-13 -13 -30 -19q-12 -3 -19 0q-7 14 7 60q19 54 49 81q2 2 8 6q8 8 -6 23q-14 16 -22 10zM107 315q-11 9 -15 21q-8 17 -6 31q2 15 10 15q5 2 7 0h-1q4 -9 5 -22q3 -20 0 -45zM103 382z" />
    <glyph glyph-name="ntilde" unicode="&#xf1;" horiz-adv-x="299" 
d="M29 365l-90 -161q-5 -8 10 -24q15 -13 20 -6q9 9 39.5 37t80 69.5t74.5 54.5q-3 -8 -11 -24q-13 -27 -18.5 -41.5t-2 -36t24.5 -34.5q16 -9 36.5 -3t42.5 22t40 33t30 30l12 13q6 8 5 10t-4 5q-9 10 -22 -8l-6 -5q-7 -5 -17 -13t-23 -17.5t-26.5 -18t-27 -15t-24 -8
t-17.5 2.5q15 29 28 55q15 33 17 39q12 41 -28 53h-2q-27 7 -135 -83l25 45q6 10 -10 24q-15 15 -21 5zM80 415q2 2 6 5t15 6.5t18 -4.5q20 -15 38 -15q13 1 26 17q4 4 -6 14q-9 11 -13 5q-8 -12 -21 -14q-10 0 -24 10q-16 10 -28.5 9t-20.5 -7l-8 -6q-4 -5 5 -14
q9 -10 13 -6z" />
    <glyph glyph-name="ograve" unicode="&#xf2;" horiz-adv-x="231" 
d="M34 358q-2 -1 -5 -3.5t-4 -3.5q-33 -30 -52 -86q-19 -61 4 -95l6 -6q8 -9 20 -16q19 -10 39 -4q13 4 34 21q22 19 41 56q12 20 19 50q48 -17 113 19q9 6 -1 19q-7 8 -18 2q-38 -22 -90 -12q3 23 0 43q-3 22 -11 36q-11 23 -31 34q-13 6 -25 5q-17 -3 -20 -26
q-2 -23 10 -49q13 -29 39 -51q-7 -24 -16 -41q-18 -35 -39 -53q-13 -13 -30 -19q-12 -3 -19 0q-7 14 7 60q19 54 49 81q2 2 8 6q8 8 -6 23q-14 16 -22 10zM107 315q-11 9 -15 21q-8 17 -6 31q2 15 10 15q5 2 7 0h-1q4 -9 5 -22q3 -20 0 -45zM92 466q-3 6 -5 9q-11 22 -11 34
q0 7 -10 15q-3 3 -12 -2t-9 -8q0 -15 20 -43.5t39 -25.5q2 0 3 1q5 4 -4 13q-4 7 -11 7z" />
    <glyph glyph-name="oacute" unicode="&#xf3;" horiz-adv-x="231" 
d="M34 358q-2 -1 -5 -3.5t-4 -3.5q-33 -30 -52 -86q-19 -61 4 -95l6 -6q8 -9 20 -16q19 -10 39 -4q13 4 34 21q22 19 41 56q12 20 19 50q48 -17 113 19q9 6 -1 19q-7 8 -18 2q-38 -22 -90 -12q3 23 0 43q-3 22 -11 36q-11 23 -31 34q-13 6 -25 5q-17 -3 -20 -26
q-2 -23 10 -49q13 -29 39 -51q-7 -24 -16 -41q-18 -35 -39 -53q-13 -13 -30 -19q-12 -3 -19 0q-7 14 7 60q19 54 49 81q2 2 8 6q8 8 -6 23q-14 16 -22 10zM107 315q-11 9 -15 21q-8 17 -6 31q2 15 10 15q5 2 7 0h-1q4 -9 5 -22q3 -20 0 -45zM84 457q-4 1 -12 -5
q-9 -9 -5 -13q2 -2 3 -2q19 -5 42 21t25 41q0 4 -8 9t-12 3q-11 -5 -11 -13q-2 -11 -16 -33q-4 -6 -6 -8z" />
    <glyph glyph-name="ocircumflex" unicode="&#xf4;" horiz-adv-x="231" 
d="M34 358q-2 -1 -5 -3.5t-4 -3.5q-33 -30 -52 -86q-19 -61 4 -95l6 -6q8 -9 20 -16q19 -10 39 -4q13 4 34 21q22 19 41 56q12 20 19 50q48 -17 113 19q9 6 -1 19q-7 8 -18 2q-38 -22 -90 -12q3 23 0 43q-3 22 -11 36q-11 23 -31 34q-13 6 -25 5q-17 -3 -20 -26
q-2 -23 10 -49q13 -29 39 -51q-7 -24 -16 -41q-18 -35 -39 -53q-13 -13 -30 -19q-12 -3 -19 0q-7 14 7 60q19 54 49 81q2 2 8 6q8 8 -6 23q-14 16 -22 10zM107 315q-11 9 -15 21q-8 17 -6 31q2 15 10 15q5 2 7 0h-1q4 -9 5 -22q3 -20 0 -45zM55 427q4 5 29.5 22.5t45.5 27.5
q10 4 14 6l-4 -38q-2 -8 9 -15q10 -8 10 0q1 17 6 50q1 7 -3 14q-10 16 -26 11q-9 -1 -22 -8q-21 -10 -47 -28.5t-30 -23.5q-5 -5 5 -14q9 -9 13 -4z" />
    <glyph glyph-name="otilde" unicode="&#xf5;" horiz-adv-x="231" 
d="M34 358q-2 -1 -5 -3.5t-4 -3.5q-33 -30 -52 -86q-19 -61 4 -95l6 -6q8 -9 20 -16q19 -10 39 -4q13 4 34 21q22 19 41 56q12 20 19 50q48 -17 113 19q9 6 -1 19q-7 8 -18 2q-38 -22 -90 -12q3 23 0 43q-3 22 -11 36q-11 23 -31 34q-13 6 -25 5q-17 -3 -20 -26
q-2 -23 10 -49q13 -29 39 -51q-7 -24 -16 -41q-18 -35 -39 -53q-13 -13 -30 -19q-12 -3 -19 0q-7 14 7 60q19 54 49 81q2 2 8 6q8 8 -6 23q-14 16 -22 10zM107 315q-11 9 -15 21q-8 17 -6 31q2 15 10 15q5 2 7 0h-1q4 -9 5 -22q3 -20 0 -45zM103 382z" />
    <glyph glyph-name="odieresis" unicode="&#xf6;" horiz-adv-x="231" 
d="M34 358q-2 -1 -5 -3.5t-4 -3.5q-33 -30 -52 -86q-19 -61 4 -95l6 -6q8 -9 20 -16q19 -10 39 -4q13 4 34 21q22 19 41 56q12 20 19 50q48 -17 113 19q9 6 -1 19q-7 8 -18 2q-38 -22 -90 -12q3 23 0 43q-3 22 -11 36q-11 23 -31 34q-13 6 -25 5q-17 -3 -20 -26
q-2 -23 10 -49q13 -29 39 -51q-7 -24 -16 -41q-18 -35 -39 -53q-13 -13 -30 -19q-12 -3 -19 0q-7 14 7 60q19 54 49 81q2 2 8 6q8 8 -6 23q-14 16 -22 10zM107 315q-11 9 -15 21q-8 17 -6 31q2 15 10 15q5 2 7 0h-1q4 -9 5 -22q3 -20 0 -45zM63 498q-7 0 -10 -4
q-5 -5 -5 -11t7 -15q6 -6 14 -6q6 0 10 4q5 5 5 11q0 8 -7 15q-6 6 -14 6zM115 498q-6 0 -10 -4t-4 -11t6 -15q6 -6 14 -6q5 0 11 4q4 6 4 11q0 8 -7 15q-6 6 -14 6z" />
    <glyph glyph-name="divide" unicode="&#xf7;" 
 />
    <glyph glyph-name="oslash" unicode="&#xf8;" horiz-adv-x="231" 
d="M34 358q-2 -1 -5 -3.5t-4 -3.5q-33 -30 -52 -86q-19 -61 4 -95l6 -6q8 -9 20 -16q19 -10 39 -4q13 4 34 21q22 19 41 56q12 20 19 50q48 -17 113 19q9 6 -1 19q-7 8 -18 2q-38 -22 -90 -12q3 23 0 43q-3 22 -11 36q-11 23 -31 34q-13 6 -25 5q-17 -3 -20 -26
q-2 -23 10 -49q13 -29 39 -51q-7 -24 -16 -41q-18 -35 -39 -53q-13 -13 -30 -19q-12 -3 -19 0q-7 14 7 60q19 54 49 81q2 2 8 6q8 8 -6 23q-14 16 -22 10zM107 315q-11 9 -15 21q-8 17 -6 31q2 15 10 15q5 2 7 0h-1q4 -9 5 -22q3 -20 0 -45zM103 382z" />
    <glyph glyph-name="ugrave" unicode="&#xf9;" horiz-adv-x="275" 
d="M55 395q-52 -57 -77 -111q-25 -60 -14 -86.5t50.5 -17.5t88.5 51q4 -31 31.5 -39.5t53.5 5.5q43 20 105 101q9 10 1 18q-3 3 -5 3.5t-4 -0.5t-3 -2t-2.5 -3.5t-2.5 -3.5q-44 -57 -111 -90q-39 -19 -32 10q9 31 45 76l7 7q8 7 -8 23q-14 16 -22 8l-3 -4
q-25 -42 -57.5 -75.5t-56 -46.5t-29.5 -8q-1 3 -2 9.5t3.5 21.5t12 32t23.5 41t38 49q5 9 -8 24q-15 15 -22 8zM124 429q-1 1 -5 9q-12 21 -12 34q0 8 -9 15q-3 3 -12 -2t-9 -8q0 -15 20 -43.5t39 -25.5q2 0 3 1q5 5 -4 13q-6 7 -11 7z" />
    <glyph glyph-name="uacute" unicode="&#xfa;" horiz-adv-x="275" 
d="M55 395q-52 -57 -77 -111q-25 -60 -14 -86.5t50.5 -17.5t88.5 51q4 -31 31.5 -39.5t53.5 5.5q43 20 105 101q9 10 1 18q-3 3 -5 3.5t-4 -0.5t-3 -2t-2.5 -3.5t-2.5 -3.5q-44 -57 -111 -90q-39 -19 -32 10q9 31 45 76l7 7q8 7 -8 23q-14 16 -22 8l-3 -4
q-25 -42 -57.5 -75.5t-56 -46.5t-29.5 -8q-1 3 -2 9.5t3.5 21.5t12 32t23.5 41t38 49q5 9 -8 24q-15 15 -22 8zM126 440q-5 2 -12 -5q-10 -9 -6 -13l1 -1q1 -1 2 -1q19 -5 42.5 21.5t24.5 41.5q0 3 -8 8.5t-12 3.5q-11 -5 -11 -14q-2 -11 -15 -32q-1 -2 -3 -4.5t-3 -4.5z
" />
    <glyph glyph-name="ucircumflex" unicode="&#xfb;" horiz-adv-x="275" 
d="M55 395q-52 -57 -77 -111q-25 -60 -14 -86.5t50.5 -17.5t88.5 51q4 -31 31.5 -39.5t53.5 5.5q43 20 105 101q9 10 1 18q-3 3 -5 3.5t-4 -0.5t-3 -2t-2.5 -3.5t-2.5 -3.5q-44 -57 -111 -90q-39 -19 -32 10q9 31 45 76l7 7q8 7 -8 23q-14 16 -22 8l-3 -4
q-25 -42 -57.5 -75.5t-56 -46.5t-29.5 -8q-1 3 -2 9.5t3.5 21.5t12 32t23.5 41t38 49q5 9 -8 24q-15 15 -22 8zM95 427q4 5 29.5 22.5t46.5 27.5q5 2 13 6l-4 -38q0 -8 9 -15q10 -8 10 1q1 16 6 49q2 8 -3 14q-10 15 -26 12q-9 -3 -21 -9q-21 -10 -47.5 -28t-30.5 -23
q-3 -4 6 -15q9 -9 12 -4z" />
    <glyph glyph-name="udieresis" unicode="&#xfc;" horiz-adv-x="275" 
d="M55 395q-52 -57 -77 -111q-25 -60 -14 -86.5t50.5 -17.5t88.5 51q4 -31 31.5 -39.5t53.5 5.5q43 20 105 101q9 10 1 18q-3 3 -5 3.5t-4 -0.5t-3 -2t-2.5 -3.5t-2.5 -3.5q-44 -57 -111 -90q-39 -19 -32 10q9 31 45 76l7 7q8 7 -8 23q-14 16 -22 8l-3 -4
q-25 -42 -57.5 -75.5t-56 -46.5t-29.5 -8q-1 3 -2 9.5t3.5 21.5t12 32t23.5 41t38 49q5 9 -8 24q-15 15 -22 8zM99 454q-5 0 -11 -4q-4 -6 -4 -11q0 -8 7 -15q6 -6 13 -6t11 4t4 11q0 8 -7 15q-6 6 -13 6zM151 454q-5 0 -11 -4q-4 -6 -4 -11q0 -8 7 -15q6 -6 14 -6q6 0 10 4
t4 11t-6 15q-8 6 -14 6z" />
    <glyph glyph-name="yacute" unicode="&#xfd;" horiz-adv-x="244" 
d="M529 112q-261 23 -438 3q27 48 55 99t42.5 78.5t14.5 28.5l1 1l22 39q5 8 -10 23q-15 13 -21 6v1q5 -4 -25.5 -46.5t-76.5 -82t-77 -32.5q-4 3 -4 14.5t2 15.5q20 49 70 106q6 8 -8 24q-15 15 -22 7q-52 -61 -71 -109q-11 -26 -10 -43q0 -32 31 -49q10 -6 23 -7
q28 -3 84 46q-35 -64 -72 -126q-144 -22 -213 -71q-38 -26 -49 -59q-10 -32 8 -65q34 -59 106 -61q44 0 176 222q189 27 481 2q13 0 4 16q-9 17 -23 19zM14 66q-108 -178 -144 -178q-44 2 -59 25q-9 17 -2 39q10 29 45 53q52 38 160 61zM92 443q3 5 28.5 22t46.5 28
q7 4 14 6l-4 -38q-2 -7 9 -15q10 -8 10 1q1 16 6 49q2 8 -3 14q-10 15 -26 12q-6 -1 -22 -8q-22 -11 -48 -29t-29 -23q-4 -5 5 -14q8 -10 13 -5z" />
    <glyph glyph-name="thorn" unicode="&#xfe;" 
 />
    <glyph glyph-name="ydieresis" unicode="&#xff;" horiz-adv-x="244" 
d="M529 112q-261 23 -438 3q27 48 55 99t42.5 78.5t14.5 28.5l1 1l22 39q5 8 -10 23q-15 13 -21 6v1q5 -4 -25.5 -46.5t-76.5 -82t-77 -32.5q-4 3 -4 14.5t2 15.5q20 49 70 106q6 8 -8 24q-15 15 -22 7q-52 -61 -71 -109q-11 -26 -10 -43q0 -32 31 -49q10 -6 23 -7
q28 -3 84 46q-35 -64 -72 -126q-144 -22 -213 -71q-38 -26 -49 -59q-10 -32 8 -65q34 -59 106 -61q44 0 176 222q189 27 481 2q13 0 4 16q-9 17 -23 19zM14 66q-108 -178 -144 -178q-44 2 -59 25q-9 17 -2 39q10 29 45 53q52 38 160 61zM120 477q-6 0 -11 -5q-4 -3 -4 -10
q0 -9 7 -15q5 -7 13 -7q6 0 11 5q4 4 4 10q0 8 -7 15t-13 7zM172 477q-6 0 -11 -5q-4 -4 -4 -10q0 -8 7 -15t13 -7t11 5q4 3 4 10q0 9 -7 15q-5 7 -13 7z" />
    <glyph glyph-name="quoteleft" unicode="&#x2018;" horiz-adv-x="200" 
d="M83 680q6 6 8 10q10 17 -3 17q-7 0 -18 -8q-2 -2 -2 -3q-10 -9 -15 -24q-4 -8 -4 -22q0 -27 18 -48q7 -8 22 7q14 16 8 24q-15 18 -15 38q0 6 1 9z" />
    <glyph glyph-name="quoteright" unicode="&#x2019;" horiz-adv-x="184" 
d="M65 627q-6 -6 -8 -10q-10 -17 2 -17q8 0 18 8l3 3q10 9 15 24q4 12 4 22q0 27 -18 48q-7 8 -22 -7q-14 -16 -8 -24q15 -18 15 -38q0 -6 -1 -9z" />
    <glyph glyph-name="quotesinglbase" unicode="&#x201a;" horiz-adv-x="437" 
d="M148 195q-21 2 -21 -9q2 -10 22 -12h4.5t9 0.5t11.5 2t12 4.5t12.5 8t10 12.5t6 18.5t0.5 24q-2 10 -23 12q-8 0 -14.5 -2.5t-5.5 -6.5q2 -24 -4 -37t-13 -14z" />
    <glyph glyph-name="quotedblleft" unicode="&#x201c;" horiz-adv-x="228" 
d="M155 680q6 6 8 10q10 17 -2 17q-8 0 -18 -8l-3 -3q-11 -11 -15 -24q-3 -9 -3 -22q0 -29 18 -48q5 -9 21 7q15 15 9 24q-16 17 -16 38q0 2 0.5 5t0.5 4zM83 680q6 6 8 10q10 17 -2 17q-8 0 -18 -8l-3 -3q-10 -9 -15 -24q-4 -12 -4 -22q0 -27 18 -48q7 -8 22 7q14 16 8 24
q-15 18 -15 38q0 6 1 9z" />
    <glyph glyph-name="quotedblright" unicode="&#x201d;" 
d="M155 680q6 6 8 10q10 17 -2 17q-8 0 -18 -8l-3 -3q-11 -11 -15 -24q-3 -9 -3 -22q0 -29 18 -48q5 -9 21 7q15 15 9 24q-16 17 -16 38q0 2 0.5 5t0.5 4zM83 680q6 6 8 10q10 17 -2 17q-8 0 -18 -8l-3 -3q-10 -9 -15 -24q-4 -12 -4 -22q0 -27 18 -48q7 -8 22 7q14 16 8 24
q-15 18 -15 38q0 6 1 9z" />
    <glyph glyph-name="quotedblbase" unicode="&#x201e;" horiz-adv-x="437" 
d="M216 195q-21 2 -21 -9q2 -10 22 -12q0 1 7 0t18 2.5t20.5 9.5t16 21t4.5 37q-2 10 -23 12q-8 0 -14.5 -2.5t-5.5 -6.5q2 -24 -4 -37t-13 -14zM138 195q-9 1 -15.5 -1.5t-5.5 -6.5q0 -12 22 -12q0 -3 18 -1t34 19t13 51q0 10 -22 12q-21 2 -21 -9q2 -24 -3.5 -37
t-12.5 -14z" />
    <glyph glyph-name="dagger" unicode="&#x2020;" 
 />
    <glyph glyph-name="daggerdbl" unicode="&#x2021;" 
 />
  </font>
</defs>
</svg>
